<mxfile host="app.diagrams.net" modified="2022-04-25T07:21:17.846Z" agent="5.0 (Windows NT 10.0; Win64; x64) AppleWebKit/537.36 (KHTML, like Gecko) Chrome/94.0.4606.12 Safari/537.36" etag="BAYr_qjaHaOCqAB45760" version="17.4.6" type="github">
  <diagram id="xIECkCZcFV6l0IzNXU4r" name="Page-1">
    <mxGraphModel dx="1422" dy="1931" grid="0" gridSize="10" guides="1" tooltips="1" connect="1" arrows="1" fold="1" page="1" pageScale="1" pageWidth="827" pageHeight="1169" math="0" shadow="0">
      <root>
        <mxCell id="0" />
        <mxCell id="1" parent="0" />
        <mxCell id="ncc3csSP8lIbkbu97Iwq-3" value="买方" style="text;html=1;align=center;verticalAlign=middle;resizable=0;points=[];autosize=1;strokeColor=none;fillColor=none;fontSize=16;" parent="1" vertex="1">
          <mxGeometry x="99" y="-139" width="50" height="20" as="geometry" />
        </mxCell>
        <mxCell id="ncc3csSP8lIbkbu97Iwq-4" value="卖方" style="text;html=1;align=center;verticalAlign=middle;resizable=0;points=[];autosize=1;strokeColor=none;fillColor=none;fontSize=16;" parent="1" vertex="1">
          <mxGeometry x="676.5" y="-139" width="50" height="20" as="geometry" />
        </mxCell>
        <mxCell id="ncc3csSP8lIbkbu97Iwq-15" value="" style="endArrow=classic;html=1;rounded=0;entryX=0;entryY=0.5;entryDx=0;entryDy=0;fontSize=16;exitX=1;exitY=0.5;exitDx=0;exitDy=0;" parent="1" source="ncc3csSP8lIbkbu97Iwq-61" edge="1">
          <mxGeometry width="50" height="50" relative="1" as="geometry">
            <mxPoint x="169" y="-199.5" as="sourcePoint" />
            <mxPoint x="349" y="-199.5" as="targetPoint" />
          </mxGeometry>
        </mxCell>
        <mxCell id="ncc3csSP8lIbkbu97Iwq-19" value="" style="endArrow=classic;html=1;rounded=0;exitX=1;exitY=0.5;exitDx=0;exitDy=0;entryX=0;entryY=0.5;entryDx=0;entryDy=0;fontSize=16;" parent="1" target="ncc3csSP8lIbkbu97Iwq-62" edge="1">
          <mxGeometry width="50" height="50" relative="1" as="geometry">
            <mxPoint x="459" y="-199.5" as="sourcePoint" />
            <mxPoint x="639" y="-199.5" as="targetPoint" />
          </mxGeometry>
        </mxCell>
        <mxCell id="ncc3csSP8lIbkbu97Iwq-49" value="现金支付" style="text;html=1;align=center;verticalAlign=middle;resizable=0;points=[];autosize=1;strokeColor=none;fillColor=none;fontSize=16;" parent="1" vertex="1">
          <mxGeometry x="365" y="-277" width="80" height="20" as="geometry" />
        </mxCell>
        <mxCell id="ncc3csSP8lIbkbu97Iwq-61" value="" style="image;html=1;image=img/lib/clip_art/people/Suit_Woman_128x128.png;fontSize=16;" parent="1" vertex="1">
          <mxGeometry x="74" y="-253.25" width="100" height="107.5" as="geometry" />
        </mxCell>
        <mxCell id="ncc3csSP8lIbkbu97Iwq-62" value="" style="image;html=1;image=img/lib/clip_art/people/Suit_Woman_Blue_128x128.png;fontSize=16;" parent="1" vertex="1">
          <mxGeometry x="649" y="-248.25" width="105" height="97.5" as="geometry" />
        </mxCell>
        <mxCell id="ncc3csSP8lIbkbu97Iwq-63" value="买方" style="text;html=1;align=center;verticalAlign=middle;resizable=0;points=[];autosize=1;strokeColor=none;fillColor=none;fontSize=16;" parent="1" vertex="1">
          <mxGeometry x="85" y="475.5" width="50" height="20" as="geometry" />
        </mxCell>
        <mxCell id="ncc3csSP8lIbkbu97Iwq-64" value="卖方" style="text;html=1;align=center;verticalAlign=middle;resizable=0;points=[];autosize=1;strokeColor=none;fillColor=none;fontSize=16;" parent="1" vertex="1">
          <mxGeometry x="662.5" y="478" width="50" height="20" as="geometry" />
        </mxCell>
        <mxCell id="ncc3csSP8lIbkbu97Iwq-65" value="" style="endArrow=classic;html=1;rounded=0;entryX=0;entryY=0.5;entryDx=0;entryDy=0;fontSize=16;exitX=1;exitY=0.5;exitDx=0;exitDy=0;" parent="1" source="ncc3csSP8lIbkbu97Iwq-69" edge="1">
          <mxGeometry width="50" height="50" relative="1" as="geometry">
            <mxPoint x="155" y="417.5" as="sourcePoint" />
            <mxPoint x="335" y="417.5" as="targetPoint" />
          </mxGeometry>
        </mxCell>
        <mxCell id="ncc3csSP8lIbkbu97Iwq-66" value="" style="endArrow=classic;html=1;rounded=0;exitX=1;exitY=0.5;exitDx=0;exitDy=0;entryX=0;entryY=0.5;entryDx=0;entryDy=0;fontSize=16;" parent="1" target="ncc3csSP8lIbkbu97Iwq-70" edge="1">
          <mxGeometry width="50" height="50" relative="1" as="geometry">
            <mxPoint x="445" y="417.5" as="sourcePoint" />
            <mxPoint x="625" y="417.5" as="targetPoint" />
          </mxGeometry>
        </mxCell>
        <mxCell id="ncc3csSP8lIbkbu97Iwq-68" value="银行支付" style="text;html=1;align=center;verticalAlign=middle;resizable=0;points=[];autosize=1;strokeColor=none;fillColor=none;fontSize=16;" parent="1" vertex="1">
          <mxGeometry x="351" y="340" width="80" height="20" as="geometry" />
        </mxCell>
        <mxCell id="ncc3csSP8lIbkbu97Iwq-69" value="" style="image;html=1;image=img/lib/clip_art/people/Suit_Woman_128x128.png;fontSize=16;" parent="1" vertex="1">
          <mxGeometry x="60" y="368.75" width="100" height="97.5" as="geometry" />
        </mxCell>
        <mxCell id="ncc3csSP8lIbkbu97Iwq-70" value="" style="image;html=1;image=img/lib/clip_art/people/Suit_Woman_Blue_128x128.png;fontSize=16;" parent="1" vertex="1">
          <mxGeometry x="635" y="363.75" width="105" height="107.5" as="geometry" />
        </mxCell>
        <mxCell id="ncc3csSP8lIbkbu97Iwq-71" value="" style="shape=image;html=1;verticalAlign=top;verticalLabelPosition=bottom;labelBackgroundColor=#ffffff;imageAspect=0;aspect=fixed;image=https://cdn2.iconfinder.com/data/icons/bitsies/128/Bank-128.png;fontSize=16;fontColor=#000000;" parent="1" vertex="1">
          <mxGeometry x="342" y="377.5" width="98" height="98" as="geometry" />
        </mxCell>
        <mxCell id="ncc3csSP8lIbkbu97Iwq-72" value="银行" style="text;html=1;align=center;verticalAlign=middle;resizable=0;points=[];autosize=1;strokeColor=none;fillColor=none;fontSize=16;" parent="1" vertex="1">
          <mxGeometry x="360" y="490" width="50" height="20" as="geometry" />
        </mxCell>
        <mxCell id="ncc3csSP8lIbkbu97Iwq-73" value="" style="shape=image;html=1;verticalAlign=top;verticalLabelPosition=bottom;labelBackgroundColor=#ffffff;imageAspect=0;aspect=fixed;image=https://cdn0.iconfinder.com/data/icons/business-startup-10/50/21-128.png;fontSize=16;" parent="1" vertex="1">
          <mxGeometry x="351" y="-247" width="108" height="108" as="geometry" />
        </mxCell>
        <mxCell id="ncc3csSP8lIbkbu97Iwq-74" value="" style="shape=image;html=1;verticalAlign=top;verticalLabelPosition=bottom;labelBackgroundColor=#ffffff;imageAspect=0;aspect=fixed;image=https://cdn0.iconfinder.com/data/icons/business-startup-10/50/21-128.png;fontSize=16;" parent="1" vertex="1">
          <mxGeometry x="215" y="360" width="60.5" height="60.5" as="geometry" />
        </mxCell>
        <mxCell id="ncc3csSP8lIbkbu97Iwq-75" value="" style="shape=image;html=1;verticalAlign=top;verticalLabelPosition=bottom;labelBackgroundColor=#ffffff;imageAspect=0;aspect=fixed;image=https://cdn0.iconfinder.com/data/icons/business-startup-10/50/21-128.png;fontSize=16;" parent="1" vertex="1">
          <mxGeometry x="515" y="360" width="60.5" height="60.5" as="geometry" />
        </mxCell>
        <mxCell id="ncc3csSP8lIbkbu97Iwq-76" value="存入" style="text;html=1;align=center;verticalAlign=middle;resizable=0;points=[];autosize=1;strokeColor=none;fillColor=none;fontSize=16;" parent="1" vertex="1">
          <mxGeometry x="215" y="430" width="50" height="20" as="geometry" />
        </mxCell>
        <mxCell id="ncc3csSP8lIbkbu97Iwq-77" value="转账" style="text;html=1;align=center;verticalAlign=middle;resizable=0;points=[];autosize=1;strokeColor=none;fillColor=none;fontSize=16;" parent="1" vertex="1">
          <mxGeometry x="525.5" y="430" width="50" height="20" as="geometry" />
        </mxCell>
        <mxCell id="ncc3csSP8lIbkbu97Iwq-79" value="用户" style="text;html=1;align=center;verticalAlign=middle;resizable=0;points=[];autosize=1;strokeColor=none;fillColor=none;fontSize=16;" parent="1" vertex="1">
          <mxGeometry x="80" y="897" width="42" height="23" as="geometry" />
        </mxCell>
        <mxCell id="ncc3csSP8lIbkbu97Iwq-80" value="商户" style="text;html=1;align=center;verticalAlign=middle;resizable=0;points=[];autosize=1;strokeColor=none;fillColor=none;fontSize=16;" parent="1" vertex="1">
          <mxGeometry x="657.5" y="897" width="42" height="23" as="geometry" />
        </mxCell>
        <mxCell id="ncc3csSP8lIbkbu97Iwq-81" value="" style="endArrow=classic;html=1;rounded=0;entryX=0;entryY=0.5;entryDx=0;entryDy=0;fontSize=16;exitX=1;exitY=0.5;exitDx=0;exitDy=0;" parent="1" source="ncc3csSP8lIbkbu97Iwq-84" edge="1">
          <mxGeometry width="50" height="50" relative="1" as="geometry">
            <mxPoint x="146" y="837.5" as="sourcePoint" />
            <mxPoint x="326" y="837.5" as="targetPoint" />
          </mxGeometry>
        </mxCell>
        <mxCell id="ncc3csSP8lIbkbu97Iwq-82" value="" style="endArrow=classic;html=1;rounded=0;exitX=1;exitY=0.5;exitDx=0;exitDy=0;entryX=0;entryY=0.5;entryDx=0;entryDy=0;fontSize=16;" parent="1" target="ncc3csSP8lIbkbu97Iwq-85" edge="1">
          <mxGeometry width="50" height="50" relative="1" as="geometry">
            <mxPoint x="436" y="837.5" as="sourcePoint" />
            <mxPoint x="616" y="837.5" as="targetPoint" />
          </mxGeometry>
        </mxCell>
        <mxCell id="ncc3csSP8lIbkbu97Iwq-83" value="微信支付" style="text;html=1;align=center;verticalAlign=middle;resizable=0;points=[];autosize=1;strokeColor=none;fillColor=none;fontSize=16;" parent="1" vertex="1">
          <mxGeometry x="348" y="750" width="80" height="20" as="geometry" />
        </mxCell>
        <mxCell id="ncc3csSP8lIbkbu97Iwq-84" value="" style="image;html=1;image=img/lib/clip_art/people/Suit_Woman_128x128.png;fontSize=16;" parent="1" vertex="1">
          <mxGeometry x="51" y="788.75" width="100" height="97.5" as="geometry" />
        </mxCell>
        <mxCell id="ncc3csSP8lIbkbu97Iwq-85" value="" style="image;html=1;image=img/lib/clip_art/people/Suit_Woman_Blue_128x128.png;fontSize=16;" parent="1" vertex="1">
          <mxGeometry x="626" y="783.75" width="105" height="107.5" as="geometry" />
        </mxCell>
        <mxCell id="ncc3csSP8lIbkbu97Iwq-95" style="edgeStyle=orthogonalEdgeStyle;rounded=0;orthogonalLoop=1;jettySize=auto;html=1;exitX=0.5;exitY=0;exitDx=0;exitDy=0;entryX=0.5;entryY=1;entryDx=0;entryDy=0;fontSize=16;fontColor=#000000;startArrow=classic;startFill=1;endArrow=none;endFill=0;" parent="1" source="ncc3csSP8lIbkbu97Iwq-86" target="ncc3csSP8lIbkbu97Iwq-92" edge="1">
          <mxGeometry relative="1" as="geometry" />
        </mxCell>
        <mxCell id="ncc3csSP8lIbkbu97Iwq-86" value="" style="shape=image;html=1;verticalAlign=top;verticalLabelPosition=bottom;labelBackgroundColor=#ffffff;imageAspect=0;aspect=fixed;image=https://cdn2.iconfinder.com/data/icons/bitsies/128/Bank-128.png;fontSize=16;fontColor=#000000;" parent="1" vertex="1">
          <mxGeometry x="331.5" y="980" width="98" height="98" as="geometry" />
        </mxCell>
        <mxCell id="ncc3csSP8lIbkbu97Iwq-87" value="银行" style="text;html=1;align=center;verticalAlign=middle;resizable=0;points=[];autosize=1;strokeColor=none;fillColor=none;fontSize=16;" parent="1" vertex="1">
          <mxGeometry x="357" y="1092.5" width="50" height="20" as="geometry" />
        </mxCell>
        <mxCell id="ncc3csSP8lIbkbu97Iwq-88" value="" style="shape=image;html=1;verticalAlign=top;verticalLabelPosition=bottom;labelBackgroundColor=#ffffff;imageAspect=0;aspect=fixed;image=https://cdn0.iconfinder.com/data/icons/business-startup-10/50/21-128.png;fontSize=16;" parent="1" vertex="1">
          <mxGeometry x="206" y="780" width="60.5" height="60.5" as="geometry" />
        </mxCell>
        <mxCell id="ncc3csSP8lIbkbu97Iwq-89" value="" style="shape=image;html=1;verticalAlign=top;verticalLabelPosition=bottom;labelBackgroundColor=#ffffff;imageAspect=0;aspect=fixed;image=https://cdn0.iconfinder.com/data/icons/business-startup-10/50/21-128.png;fontSize=16;" parent="1" vertex="1">
          <mxGeometry x="506" y="780" width="60.5" height="60.5" as="geometry" />
        </mxCell>
        <mxCell id="ncc3csSP8lIbkbu97Iwq-90" value="支付" style="text;html=1;align=center;verticalAlign=middle;resizable=0;points=[];autosize=1;strokeColor=none;fillColor=none;fontSize=16;" parent="1" vertex="1">
          <mxGeometry x="206" y="850" width="50" height="20" as="geometry" />
        </mxCell>
        <mxCell id="ncc3csSP8lIbkbu97Iwq-91" value="结转" style="text;html=1;align=center;verticalAlign=middle;resizable=0;points=[];autosize=1;strokeColor=none;fillColor=none;fontSize=16;" parent="1" vertex="1">
          <mxGeometry x="516.5" y="850" width="50" height="20" as="geometry" />
        </mxCell>
        <mxCell id="ncc3csSP8lIbkbu97Iwq-92" value="" style="shape=image;html=1;verticalAlign=top;verticalLabelPosition=bottom;labelBackgroundColor=#ffffff;imageAspect=0;aspect=fixed;image=https://cdn1.iconfinder.com/data/icons/rounded-social-media/512/wechat-128.png;fontSize=16;fontColor=#000000;" parent="1" vertex="1">
          <mxGeometry x="333" y="788.75" width="95" height="95" as="geometry" />
        </mxCell>
        <mxCell id="ncc3csSP8lIbkbu97Iwq-96" value="签约" style="text;html=1;align=center;verticalAlign=middle;resizable=0;points=[];autosize=1;strokeColor=none;fillColor=none;fontSize=16;fontColor=#000000;" parent="1" vertex="1">
          <mxGeometry x="380" y="918" width="50" height="20" as="geometry" />
        </mxCell>
        <mxCell id="ncc3csSP8lIbkbu97Iwq-97" value="第一方支付" style="text;html=1;align=center;verticalAlign=middle;resizable=0;points=[];autosize=1;strokeColor=none;fillColor=none;fontSize=32;fontColor=#000000;fontStyle=1" parent="1" vertex="1">
          <mxGeometry x="321" y="-357" width="180" height="40" as="geometry" />
        </mxCell>
        <mxCell id="ncc3csSP8lIbkbu97Iwq-98" value="第二方支付" style="text;html=1;align=center;verticalAlign=middle;resizable=0;points=[];autosize=1;strokeColor=none;fillColor=none;fontSize=32;fontColor=#000000;fontStyle=1" parent="1" vertex="1">
          <mxGeometry x="301" y="270" width="180" height="40" as="geometry" />
        </mxCell>
        <mxCell id="ncc3csSP8lIbkbu97Iwq-99" value="第三方支付" style="text;html=1;align=center;verticalAlign=middle;resizable=0;points=[];autosize=1;strokeColor=none;fillColor=none;fontSize=32;fontColor=#000000;fontStyle=1" parent="1" vertex="1">
          <mxGeometry x="290.5" y="670" width="180" height="40" as="geometry" />
        </mxCell>
        <mxCell id="ncc3csSP8lIbkbu97Iwq-100" value="用户" style="text;html=1;align=center;verticalAlign=middle;resizable=0;points=[];autosize=1;strokeColor=none;fillColor=none;fontSize=16;" parent="1" vertex="1">
          <mxGeometry x="80" y="1527" width="42" height="23" as="geometry" />
        </mxCell>
        <mxCell id="ncc3csSP8lIbkbu97Iwq-101" value="商户" style="text;html=1;align=center;verticalAlign=middle;resizable=0;points=[];autosize=1;strokeColor=none;fillColor=none;fontSize=16;" parent="1" vertex="1">
          <mxGeometry x="887" y="1527" width="42" height="23" as="geometry" />
        </mxCell>
        <mxCell id="ncc3csSP8lIbkbu97Iwq-102" value="" style="endArrow=classic;html=1;rounded=0;entryX=0;entryY=0.5;entryDx=0;entryDy=0;fontSize=16;exitX=1;exitY=0.5;exitDx=0;exitDy=0;" parent="1" source="ncc3csSP8lIbkbu97Iwq-105" edge="1">
          <mxGeometry width="50" height="50" relative="1" as="geometry">
            <mxPoint x="146" y="1467.5" as="sourcePoint" />
            <mxPoint x="326" y="1467.5" as="targetPoint" />
          </mxGeometry>
        </mxCell>
        <mxCell id="ncc3csSP8lIbkbu97Iwq-103" value="" style="endArrow=classic;html=1;rounded=0;exitX=1;exitY=0.5;exitDx=0;exitDy=0;entryX=0;entryY=0.5;entryDx=0;entryDy=0;fontSize=16;" parent="1" target="ncc3csSP8lIbkbu97Iwq-106" edge="1">
          <mxGeometry width="50" height="50" relative="1" as="geometry">
            <mxPoint x="665.5" y="1467.5" as="sourcePoint" />
            <mxPoint x="845.5" y="1467.5" as="targetPoint" />
          </mxGeometry>
        </mxCell>
        <mxCell id="ncc3csSP8lIbkbu97Iwq-104" value="微信支付" style="text;html=1;align=center;verticalAlign=middle;resizable=0;points=[];autosize=1;strokeColor=none;fillColor=none;fontSize=16;" parent="1" vertex="1">
          <mxGeometry x="343.91" y="1516.25" width="80" height="20" as="geometry" />
        </mxCell>
        <mxCell id="ncc3csSP8lIbkbu97Iwq-105" value="" style="image;html=1;image=img/lib/clip_art/people/Suit_Woman_128x128.png;fontSize=16;" parent="1" vertex="1">
          <mxGeometry x="51" y="1418.75" width="100" height="97.5" as="geometry" />
        </mxCell>
        <mxCell id="ncc3csSP8lIbkbu97Iwq-106" value="" style="image;html=1;image=img/lib/clip_art/people/Suit_Woman_Blue_128x128.png;fontSize=16;" parent="1" vertex="1">
          <mxGeometry x="855.5" y="1413.75" width="105" height="107.5" as="geometry" />
        </mxCell>
        <mxCell id="ncc3csSP8lIbkbu97Iwq-107" style="edgeStyle=orthogonalEdgeStyle;rounded=0;orthogonalLoop=1;jettySize=auto;html=1;exitX=0;exitY=0.5;exitDx=0;exitDy=0;fontSize=16;fontColor=#000000;startArrow=classic;startFill=1;endArrow=none;endFill=0;entryX=1;entryY=0.5;entryDx=0;entryDy=0;" parent="1" target="ncc3csSP8lIbkbu97Iwq-114" edge="1">
          <mxGeometry relative="1" as="geometry">
            <mxPoint x="569.5" y="1466.25" as="sourcePoint" />
            <mxPoint x="423" y="1468" as="targetPoint" />
          </mxGeometry>
        </mxCell>
        <mxCell id="ncc3csSP8lIbkbu97Iwq-109" value="第四方支付机构" style="text;html=1;align=center;verticalAlign=middle;resizable=0;points=[];autosize=1;strokeColor=none;fillColor=none;fontSize=16;" parent="1" vertex="1">
          <mxGeometry x="555.07" y="1516.25" width="130" height="20" as="geometry" />
        </mxCell>
        <mxCell id="ncc3csSP8lIbkbu97Iwq-110" value="" style="shape=image;html=1;verticalAlign=top;verticalLabelPosition=bottom;labelBackgroundColor=#ffffff;imageAspect=0;aspect=fixed;image=https://cdn0.iconfinder.com/data/icons/business-startup-10/50/21-128.png;fontSize=16;" parent="1" vertex="1">
          <mxGeometry x="206" y="1410" width="60.5" height="60.5" as="geometry" />
        </mxCell>
        <mxCell id="ncc3csSP8lIbkbu97Iwq-111" value="" style="shape=image;html=1;verticalAlign=top;verticalLabelPosition=bottom;labelBackgroundColor=#ffffff;imageAspect=0;aspect=fixed;image=https://cdn0.iconfinder.com/data/icons/business-startup-10/50/21-128.png;fontSize=16;" parent="1" vertex="1">
          <mxGeometry x="735.5" y="1410" width="60.5" height="60.5" as="geometry" />
        </mxCell>
        <mxCell id="ncc3csSP8lIbkbu97Iwq-112" value="支付" style="text;html=1;align=center;verticalAlign=middle;resizable=0;points=[];autosize=1;strokeColor=none;fillColor=none;fontSize=16;" parent="1" vertex="1">
          <mxGeometry x="206" y="1480" width="50" height="20" as="geometry" />
        </mxCell>
        <mxCell id="ncc3csSP8lIbkbu97Iwq-113" value="结转" style="text;html=1;align=center;verticalAlign=middle;resizable=0;points=[];autosize=1;strokeColor=none;fillColor=none;fontSize=16;" parent="1" vertex="1">
          <mxGeometry x="746" y="1480" width="50" height="20" as="geometry" />
        </mxCell>
        <mxCell id="ncc3csSP8lIbkbu97Iwq-114" value="" style="shape=image;html=1;verticalAlign=top;verticalLabelPosition=bottom;labelBackgroundColor=#ffffff;imageAspect=0;aspect=fixed;image=https://cdn1.iconfinder.com/data/icons/rounded-social-media/512/wechat-128.png;fontSize=16;fontColor=#000000;" parent="1" vertex="1">
          <mxGeometry x="333" y="1418.75" width="95" height="95" as="geometry" />
        </mxCell>
        <mxCell id="ncc3csSP8lIbkbu97Iwq-116" value="第四方支付" style="text;html=1;align=center;verticalAlign=middle;resizable=0;points=[];autosize=1;strokeColor=none;fillColor=none;fontSize=32;fontColor=#000000;fontStyle=1" parent="1" vertex="1">
          <mxGeometry x="292" y="1200" width="180" height="40" as="geometry" />
        </mxCell>
        <mxCell id="ncc3csSP8lIbkbu97Iwq-117" value="" style="sketch=0;points=[[0,0,0],[0.25,0,0],[0.5,0,0],[0.75,0,0],[1,0,0],[0,1,0],[0.25,1,0],[0.5,1,0],[0.75,1,0],[1,1,0],[0,0.25,0],[0,0.5,0],[0,0.75,0],[1,0.25,0],[1,0.5,0],[1,0.75,0]];outlineConnect=0;fontColor=#232F3E;gradientColor=#4D72F3;gradientDirection=north;fillColor=#3334B9;strokeColor=#ffffff;dashed=0;verticalLabelPosition=bottom;verticalAlign=top;align=center;html=1;fontSize=12;fontStyle=0;aspect=fixed;shape=mxgraph.aws4.resourceIcon;resIcon=mxgraph.aws4.managed_services;" parent="1" vertex="1">
          <mxGeometry x="579.25" y="1421" width="81.63" height="81.63" as="geometry" />
        </mxCell>
        <mxCell id="ncc3csSP8lIbkbu97Iwq-121" value="" style="shape=image;verticalLabelPosition=bottom;labelBackgroundColor=default;verticalAlign=top;aspect=fixed;imageAspect=0;image=data:image/png,iVBORw0KGgoAAAANSUhEUgAAAJkAAACWCAYAAADNCipvAAAgAElEQVR4Ae2diXsb5bX/+Ut+t9DeUrjdaKELlMJlKQW60NsCXWlpe4G2l25AL+1tIQnZE7JvkA0SkhBCNrKSkJAEsi9khSS2ZVm25U225U2yLNvn93zO+E0mY0keSSNZMprnmWe0zrxz3u+c/Zz3KvmYbP0ionu/SD/7x+S+C+E2ryqEQeRyDICpr18k1tsvkZ5+6Yr1SSTWJ7F4v/T2WYDL5fVL5xYZsSADWN3xfmmL9kpdW1wuNnTLyeqIHPVH5EQgKufrY1Lb2iOtXb0S7elTIJYAkRsKjDiQwbl6+0Xao31SGeqR98s75fVjYZn5bkjGbm+U5zc3yphtTTJtV7O8eqhVdl/okLKGmHRE+yTe1583Maoie0B052ZqC+esIw5kcLBwpFdOVEdl2aFW+dObdXL3HL98bkK5XDu2XD79Qpl8+oVy+Y/x5XLzNJ88trJWXn6/RY5XRaSlqzcvQOvt65fogOjmyEMxknXEEQMyJgk9C9G486MOeWFbozy4OCBfm+qT68aVySdGXZR/e/7yzvt/H1MmN02pkAdeDsg/NzXI2x92SKClR3U2wOrFxmlUdPf0SXNnXHxNMfmgOiL7yjrlnY86Zc/FLjkeiEp5U0yaOntVxHt1bS/G78U5RgTImMie3n6pC8dl27kO+dv6evn2XL9yq6sHwPX/nr8oifarR5XJ9ePK5bYZPnnyjaBsOt0uVc0xnWwvCBzv7Ze2SJ9UNMVk1/lOmbevWf6xsV5+tyoov3mtVh5bFZSn1tXL3L0tsuOjTqkIxaSje0B0ewR0L+4jm3OMCJDx5Ld09qp+9feN9XLrdJ985oUy+bchAGZAB1e7ZsxF+dLkCvnL2jrZ/mGHNLTHsxJh4APrNdTZK0f8EVm4v0X+tKZO7ptfJV+eVCGfGVsm/66iu0w+O75c7p3nlz++WSeL9rfK8WpLdPPgjAScFT3ImITO7j45VRORCW83qv6F3gVwDIjcHj81pky+OaNSxmxrlIOVXYLulMkko9QDkGC4R0X3uO1N8oOFAfnSpArVCa8ebYltM65PPH9Rrn2hTG6cUiE/eDkg495ukt0XOqU23KOul0zGkA3n8fq/RQ8yuFiguUdWHQvLg4urdRLRvcwEpnu8dmyZAmLBey3SGukVxF26GwCDE2450y5PrauT22dWKucaalw8GIDtG9Mr5ZkNdaojcp5i19GKGmRwDKyz98u7VA/7+ou+jDiYHYjocBgD6Gf7yjvV4nQ7yYaD4X9Dt/vjG0G5baZPgeOWsyLiEaO3z6qU/9vUIO+c75C2aJ+K3nTBXii/L2qQ4deqb4/La4db5YGXq5Rb2AGTyWu4DeL23rl+mbijSa0+t9wM8drUEVed7q/r6uTmF31qwaY7DgO0e+b6Zey2RjlVE1VjIH2eWhgwK2qQwcVOBCIyemuD+ryuGZ25mLQDAW6G/vTjxdXqamiL9A4psgAA0YMDFV3y3OYGFZFwJLcczH59XvO/z40vlx8uDKhFerGxW/U8uGWxbUUNMsTIhlPt8ujyGrXQMp1Q5wTDzVQ3muZTh64/FNMJTja5zHu8V+RcsFtm72mW779cpf+HIznPnc77a0aXyZcnV8gjy2pk69l2aeyIq7M42TgK9fOiBRl6EqJy7t5mtSg/6bDY0pnMRL+9ZoCTPL+lQY5WRSTS05d0DrEN8IVtPNUuP3ulWqMLic6ZyWdYvF9/sUJDYh9UR1OOI+kAh/mLogUZwe8P67tVNH11avYKvxMAcEV0s18ur5at59pVJ0o0V3CxSKxfjvmjMnpLo9w6zScAw3m+TN8zDixeohdrTrSp360vOd4TDXHYPytakJFdsedip/x+dVBumFihIaNMJzLR/xCZcLN75/tlxdGwhoQS6UMYH7gZlh1ulYcXV8t/jCvPWA9LNA4+A2i4NSa/0yQf1Xd7Fo3IF/qKFmSN7XFZc7xNfrK0WvWxZBOUzecAjcklFFTT2qPOWefEdMb65HRtVP7xVr187UWfYDRkc81k//3CxAr5nzeC8u7FTnVpOMdRyO+LFmRMOg7T++ZVqThJNjnZfv6VqT6ZvDOk+WgkPjo3uBi62E9fsbhYttdL9n/CUP+1MCCrj4WlqaPXOYyCfl+0IPM3x2TKzpDcPqMyI19Ussl0fk6oZ/TWRjlZE5VofDDIyJ6YtiukLgsvdTHnOD45ukxum1Ep8/e1SDAcL2hQOQdXtCDzhWIybnuj3PJipaeKtnNyCZrjecfC7Oq5EmQ4X0nbeWp9nXxhove6mH0s6GVEIqbuDGkyptsohHPCh+N9UYOMTFe86rnkIDdMqlB967A/ovUBZpKskFaf7C3rlF+vqLH8YlnETO2ASvQan9sNkytk/NtNUtYYS6gfmrEV2rFoQVbZHJNJO5s0ayKXIIOTodQf8XddATI4CQH0t860y8NLq+WTHrotkoHsi5PwlzXJhYZYUTllixZk1S096l3/1hy/cpFEE+PFZ3jccchajtDL4hJRSRYu7o0HFgZyDjLE5ZenVMikHSFBVehL5E8pNBY2MJ6iBVmwNS6LD7TK9xZUyXVjvXN+OoF501SfTNjRqP4p0rvNRtC8qrlHkxFJRCQE5Pyvl++Jy94y3Sdz9ljulMsjMSMq3GPRgqyhLS4rj4blwUUBTZ/2ckLt5/r6NJ/M2hPSlGwcr2YjZ8zX1K0+tHvm+XMOMqIP98+vUqcvbpNi2ooWZM2dvZqz9atlNfL5CeWecxEcsZ8YVSZ3zfZr6RzBaRvGNGBeGeqW+fuaJR8g++yEcnn0tRrZcrZdc9xKIMsDBairJK3mz2/WaW4+oLBzoGxfowNhUPx4abVsPN2uXvbLfExU8a5qieVNXKIbPruxXrBySTcvpm3YOBkThu4Kd2BPV4+N9YqUN1q+spunVXoeLyQ8RBzy6XV18n7FlZYlE3xZ8W+VBxZW5VTxpwaA4piZe/CRpU47KkTw5RVkAInJITxDxXaow2ohUN8W1+wCSsGsHhX9FvBSUIxzUQm09GCrfP8l8rfKtTopWw5m/o+H/cbJFZpKdKG+W8dlHw4RJpIUcWHA7XLlRoGjXjumXH60KCBrT7allQ5uH+9wvs4byOBWNDuhAudsMKpOzLdOt8vq42ENdG8+0665+mdqu7XAtp3awyFKwhAbVPVQakYmKxNiQJLNEdF7/bgyuXt2pSYLhjrjg5yfgJzM3PfKO+W3K2u1Ot1rkc09YLUC9n8NRB1S5bUNJ5BSXTvnIDOTQXnYQV+XLD3YIv/3VoP8ZkWtPLykWoO+P1wUUG7AZP39rQa12N453ylwEFoHYMkl2uB6ZY1WNir+MirCswEX/wUonxptlcb95c06jVkysdyHc6Ou0srAaJAvT/YJpW7ZXt/+fx4aRPZ3F1RpPw+SAtzWGzjHOpzvcwoyuBftmtAj4FSjtjbIw0sC8vWpFXLduHLVY3hS2fGY8xnpMt97qUq5Ez0qDvi6NO0YoDknGockeWVUjT+2MugJN2NiKbb96dJqWXU0LLXhwVzMPmE4Rqn+pt+GFyA3IFOwjymTW2f45Jn19XIsQHaupUbYr18Mr3MKMoARaO3RjM4/rA4qgEzhLbE4CHnFPspK0Lt6NIArk+8sqFJvO2VhuCx6EhTbwk3O1+OvatHq7GyLSQA8Bb6jtjSIrzGmfTGc4LZPLNVJW892yC+W1XjqrwPsn59YLr94tVrWftCmqeYJmKl9KAX7OmcgY2JQ6Mm1+v3rQSFFGm7ltrgCIsPZKIxF59p+rkMTB7vjV5rvED4c6VOOxxMPJwRogNdwBbdHLMovTizXTj/rPmhTnQtunGrrivXLuTorDZwuQWTTZnJt+xih0afHWs7XqbtC2qSFHmrFuuUEZKhQZIzuLbOKbm+bmVk6DkCzKqp9mma96Uz7QIbqla2W4Jg0W1l3sk0BTUoM1p7byWZS1WUxUIJG3wq4YyoOZiYcTkoS4evHw8p1cAxnmx3L2BGT/9rcoCnmWN1Dgd2MpxCPnoOMicGK/Kg+KjPeDWkjETiSWw5mf6J5DdA+PaZMORTOyJ0JKqq5JpYenXOwVh9bVSu3TLMKa/m/85z29wARXeqGSeXq75q9t1lOVEdU13MzYTA6rk053PTdIRXZ140tdw1w+1gYK7WaVML/dW2dtjkgQREgF/PmOcjwgyEmqayhXvBzE7J3LQAERC0V1VPeCal4Ash2SWYmm/5fAO2Pa+rkjll+tc6cYprzMaFwDNpGfXN6pRCemruvWau1aaLHfbjd+Cnc5r3yLuU+WLp0FYKjueWm6II05vvPWZUaxcC9UxWKDfLP2cfEw8U4iamanfcYRG64sP1cuXztOcho+nu6JqrZpKqHjXYvtuxPtfM1nBCr7+ev1sjKY2FNQXbiAMLi1sBdgg5Hd54f0Qjvxcv9KJh0JpTq7FunV8pDS6wGeOhg/uYe5cKZcA4mFiOAJEbStTFavjChwlXgHMB/cWKFfP/lgP4X3x8PKmV/ycDCveNawcVT19ajagQ9OBrae7TTZDeWaIFwQM9BBnF4Cn/2So18JkOx4QQY75WbjbY63vxtQ70cIx0abuZgOAZoZCrQgJh8L9Knsf7ol/Hdl6rkR4ur5YlVQU3ffuN4WFOryQ1D7DF5jlO6fsjRDQEa8UWKXJ54Pajik0wO0rOxrDFK8KfBXeGi6I93zamUJ16vlZfeb9axEMlwumy4L3xk7dFeqQn3KDen0Qxx1RVHW+WVQy3y6qEW9acRRCcUdrY2qulIADEVYF3fYIY/9BRkTA4K88zdIfnPmZWunuJEgEr2GUDDOUkPL9J8eHKTiTWMD0CIA5MikF0XOuSt022y4VSbbDvXLvsrOuVsXVQNBowUr5IA4R4E7/GfwZGWHGjVVqG/XF4j357nl5un++Rr03yCMUTPMjr/zN4T0j5mxGITKfkwJEBCJsjRqi5ZfqRVXTuPrwqqE5vzEFpjx7FN5dTjK2vln281yEvvtWgZHa0WAKgTvBniJq2/eQYyAMaTtr+iS5XWL0zIXNlPBjI+xxuPYkyYBU6VqEzNUECf/j6rhz+AQ9cKd/XqRDJpEBzR6BS75v+ZHjmfxXX6pKqlR7nT1nMd2kONREus11cOtar/C/FKMxW4DaI+MWfuU45EOyr8dw8vDigNeOAwFNAt7TscEy6JuvLd+VXy5OqgzNvbomE7OLYCLdOby+B/noGMyWIS8YuhN3np/baDDv0F6+0Xr9Zoi6ZET34iOjB5TH4fDt0sRGKicyf7DO4IcBgjIIITBdviGr9lsmlETMegaJz+Y4O7OjJedFx62NImnuJeDAM6eSNuoYWdNvbX6LAE+aHVjZN98v2XAvpgEnlB98wn0DwDGYOGGLBnlF6v43h2AkJcLM1lh8NS305b9GTTXHifp6PvQVNtqHemXWO95JTBsdxarIZm/N74G8m/Q2du6rQ4Wj4o5BnIUJpp1jZma4N2F0z1lJmbz+ZI6GfG7mbNKUP0jbQNbks1FP0+nlxjheSwitMFmKEx8wFAsaifWlun+iIGRq9TPueAkJ6BDJ0Ha+dPa4Jy05TcFrpCOOot6dWPu4Rrj7QNXfPDum4NvmMkoGcZwGRzhKPdMatSnttUr4XJHd00+MvtQ+oZyNA7aE2OAxanYqYefrcERKnFNYErA+twJG3MOfl0WMH0rkXB90oycB4iMKQPsewPGTK5lgSegcx0PfyvRQFV+jNl625Bhn/p2Q31criySxXrkQQy3CAYBhSp3L+gShV4L+mJvkySJ/oZK6MglnPJzDwDGQN943ibEoWb8JIoiYAHyP53fZ0cUpAVV5eboR6Inni/nK/rVv8ayr5XXMzQkbnBKazG06FWzUTOJMox1H2Y7z0DWUtXXFYda9WmcV4TxRDHfvzKVNoHWI1Qiq16xxA/0RHtiPt590Kn/O71oFAKl4sHlnOy7tTzmxvkcGXEiggkGpAHn3kGMouThfPGyZRAWxq1fYAXij+Ti18KtwE6CnFBdD10I1SBcNR6je7J9fgNv+U/XqrNiC0KVN440SY/f6VG9adcgIwHFn8bkQiaOwPsXIlMz0DGRKw/2a6hkkx8OXYu5eY1qTz02SfFhrTkbDaIi7gAPASbrQVYoyqK6WzIwlo7PuqQXRc6NdMCY4PwGYF4QEcGBOfIbhTWHXCexo5ejX0SPsMazBXIiBZ8a65fFr7fojlxPDC52DwDGcTedrZDnz5CGrm2LmkIRztzUnuysY7gRmTWEv45HojImx+06QKsFLuQMk4cEGOG5QpZVod27tRiTn2nSXVQdEIsNKIduB2ynSdAhtI/eWeT6kw8sG4eukx+g+5MiG7Sjia9h1w5tT0DGVxgX1mX/M/qoPaez7VedtfsSo3/MSGZVPDw1BLygWscqIhojcATq4NaPXXH7Er56tQK+fyECuUk9swJmrugjJMWTmoOetOsd5s1ZmvSc7LhCPy3ujWuSj8OZxywmQDIzX+YI1pjsdbnyeqoxOLecGMnN/QMZMbjTy4VzsNcgQzRQR49FU3rT7WpvpTOpFqisV8LU2gHRUbDMxvqNRT22fEV6n5hYhk/3NguqnjNZ3wHFyB+CBDJrmAJQ4LerABM0TLiNxOuxr3QLQj3Av1qs03lTgU27oOeZ6y3SWIDEgH6eL15BjLEDqveLtrfogDI1ROoufjjyuTXr9VqyAVwu6ULEwjHpd8sq/ROeLtJU2UoAMFBmUnYBrDRNBiXykOLq2X89kZNmAQoJj8tnUljjDT4Q1Tnwn1hBx0go6s2gCZ8pbR0S8w0bsozkEEcy0vdocFcxIqdC9hvLpvXcA/qNimygMUDbjcbTyjWIq0wSc+GsIRXiE4AlGzGxH/pV4Fn/s7ZlUJR8Jsn2rS3KwtJpMMdFGShmPzu9Vrxsio+0f0ZkLFOe1GAjKkmXQURxMpmcAcvJs9OHEBL6ooJiaCsu3EiMsmUlGER0juDFkwovKYG1H6NbF4zafTkwPL9zYoazcqlO3Y6YijfIENcYsgUhbg03IReF1hoDy3JfoFT54QjKm+aXKFlbwTjyUB1wyXgdoiv5Ydb5VfLa5RD5EqcM2a4LVyItgtEQWg96pbj5htkpicuzMEL69jgwH70TFyak6Lz0B+CPqvfmD5Q0JtBoa0TYHAxOA/tO+fuCale5UZSAkLqIqnyJq+fyc+0+Nc5pmTvGSvXoFEKAW4SB7BiAdBQmwEZBdGsVQ53THadbD/n3KxTQMHN+YZuXenOxRCHuoVB33sOMhyTFHEwqU+uqdPQRbbOWWvSKHitlH9srJf95Z3qlxqKIASaAf1BX0Se29SgOli2Y3E7sYyZa+Fq4YFDHIWjQwMNkF22Litybl1isLDmOTWrBe8nM/CFc1COhYig2OORV6vlpsnlwlKBbifI/jtcBuT1Y2nhk0IU448aSvxYehh9XWPy0vtWti6KOZNvP38uX3MtHNPokCyZSH6Y6meGWAmOgAw/GW3dkQS5FOtwMmLAk3c06Xy50W8TDHnIjzznZFyRCQYEF+qtdGwW2bphYnnafSIgAqGPr02tUE87oMU6JEuBa6TaIBjNi0k1fmxlrfaVzaXoSQZWrklRzS9frdF1kchGZQHWZBv3RSehF7Y3qqWKfpfs3Nl+jmGGgTbz3ZDSyo04TzbuVJ/nBGTmgoiqM8GozH+vWQs/YM2ABsIn4ih8xnfcPKKGgtdvz6tSRycKNCwdX85QG7+gpRRL1eDNxtrzetFVtxPMPVHQQZIlDWEQ3QTAk00oIINTs17TvfOqlF5ur5Xu75gLWl4t2t9qqR9Dk3Yo0if8Pqcgg5AAjWZ2q462qhKMdxyLhv4WBmxMBGKRyUCkwcLvmVsl/72yVvtp7Cu3epQlKhlz3hV0govirqD0jMgABkMiUKc7KZn+nmszhm/TZmFnkxpGZHkkAhogw1Bh4lkVLpcBcnyErDRMa6qiyMJwTrZ5j/JN8JwgMhkNC/a1aCHDj5dUa+7ZXXP8cuecSm1TDlF/u6JWuc/C/a2a+YAeQztNgDOUiOR7gEjkgRIyQMraSIA5U4B49T/GQGrNQ4sD6qvjweMBdN6T4cJ0MHr0tVq5nlT2HOmRN03xyf9uqNeWpKyAlyNGJjnlZAZoEBKrkxrDsoaY7L3YqQ1ZSDFBH5ixJ6TK+cqjVHd3yCFfREUjYgX9K9ETb85tjhAIPw8lcli2f15bp/oGrgSvgJLteVAD6B6EjvjmibCWEPJQODdUguOBqNCOAYMHLp/ttZ3/ZyxEPGgycwH3hRsiOwfq8n1eQMZYICVg417ImuApDnXEpbolpt0YKXyF48GxUNr5Hb8fPAWJ74z/oFTDLZ9ZX3dpYa9ccQHnpLl5z1hwKJPh8ec3gxo/ZczO+eVeasJxze64Z44/Y8s82ZgALX1Kfv5KtWw526Hi2clRE1M5s0/zBjLn8LgpwlCAip0nyUls53+SvWdSqNDeV96pMU1yzbTZiwsOwMQ792ST49Xn6Ge3z/SpWsCY27spUL4srqANSaC0NqDmkm5GXmVjcK8YVfgcyVk7U5v7ksJhA1kywKT7OcBsjfSpJckiq2R6oiwPpYcxabRS4LdmZ/LZ+TyX/ikmmswNCjmoHT1VG9GKIXsEgwfvQmO3LDrQoo0EvSqLw7jCykdfpRcv0iSXopL5LGqQATCsItKhMflpC4Xz081Tj2WFTnL/fL86S78z3y/3z/OrBUi/CUI6gMEr7uU8Dw8BwGFRLrJsiR2ygIYRW9wbbphjVV36/X3z/XpvmYbEuBf+C8BIEHj9WJsaSG4s9nQffOfvixZkiFoC5CzPTOslVuygW/RQHIzJRichJQcugvFBkSs7SYfkw1E7QEMXN+dygied91ePIumxXDNsGce5WuoVLgMN3RWd7ag/ItN2h9TdgPOUBwRuS5fwoR4E7gHuhZVKBOHxVbW60hw+R5oqG1A7geHl+6IEmXnKTwQiMmN3SB5aFFCvOkR3M8kQnqVq6FlG+Ku5q1d1Ou280x7XSR2/vSmnIlPBroaA1cbz0eW1snygotsuvnhNnt7ZYLe2niLcxBoDd8ysVGe1xmKT6J7cJ6oAlV08hPyX5s30QdPwllurKkvEFR3I0FUov6NWEI5DXJCwDVxhqKfaAJAlBum8SPU5BSBMJMBlh/gU1r64K5RzkBmgAQYc0HCZ1cdo7me18mQ84IAjHK6+Pa5ildajxBt/vzootCslKnLHbL98c2alKvQo9bfPqtS0cPyR+MKWHW7VQhnOkasM2GRYLBqQQWzAwKIRVAiN2tygijNJjEySAZCbIyCjZwe6HCLX3nBEFe76btXxcqn8O8dJjJLetijkhNBow+WMCgA2AEINAcmQJ6qj6rKBOy052KrVW9N3N8vMd5sFZzbNocl4ZS0r8vw4n924SAYKrz8vCpAZgJFCRO3j81saVUFHcUbJd8vBzMQakFH0gSgqBJChJxJLJMaJYk6CJdEOZ1TAcv1YjmdA0xbp01gnERVywvgPITWyT2i4B6cmKxj9Lh/6VyKAFjzIjAgDYBR/kJuF6W/5jtzpYAZc5mhAhk6HA7jfRv3h4mSMDaChY2EBssDZ4oMt2vMNC5oOkc7NiFLGjJgHdGaH4/E5fxv8T+eZcvu+oEFmiYc+7TYIB2OxCGKd+LLSFZEGYBwBGeX5WKbOwPBwgsyM0YSfHllWLSxiRkV7Vw7bCOQWYgXsJ4O5wOYDLTHZeKpNc/OxkrCWeOLNhGRyNCCjKzYVTDZGpk8/wWv8bvnUyez3gfgHaKzzhFVIpXxZg7Wwq32suQaHV+cvOE4GEQkToSsBAqqLEB3ky6cy180kMUEpd11HqUz1HqtL45W6SiFwMnMvgPxLkwCalVlLu1QMFXyExbQVFMgAGJkU+K1Y7IC1ish3IhMBgqfiYPr0DzgeASPOyit2wkUDYaNrx5bJf6+qVauLZi127pAMZJwfEZ1s53sDjqGObs/F/eJIxUVD4TBWI/06cOHko9erV0AuGJBZ+peVC7b7Qof2q6fJCXWB16RIQbYmgnpMLDNW9/BfWjThwUUBubQvDmguF8vc4DuauKNRF3Rw5twnAhnXALAYG+SnUfFk3xFrxCJ1GcIhRDkgvXSuiVeeh3MTASC4j7gEjOzXjLKyhH+0qFqdz4f9Xeo8tjttvQJELs5TECCD+RNDY/UQkvX+uCYo35zhS5lJAfHx8DMhWGP3zvPLE6tqtfXA4gMt6h1fcyIsZid/a+3JsKw/2SYbTrbpUtXKERztZhOBDG5C6dh35lept52Q0yMDO68BLQ1YaHWQyiBhzBTFMF7a0P906eXzcD6WCiJx08oiudK44byAnP/hhCa1nAgFQLNz4lyAJNtzFgTIEJFU6LDOEV5svN8mPTuR6NHJGiigZR3z8W83agoxa5x/VN8tVS0x7R1GrzH2etvOAldmkSudIAcFE4GMuB8tpLD04LIUFlPipnt5l7x9rkP+vrFeV5sDRIwv0bgNUFABqKDadb7zivPQXZEWCk+vY3HYChWV9vPgE8Q3SAo7tQtY3Lh28hHkdpAprbfDCjJEJOLKH7KWkKbt1K0UBI+2ekvYCcxrJo9MAgLE+MqeWlenTkuealpI4fPifAAFACXaUZrZk+nOiUBG4P0PbwQ11skCXbg9sEp178bFEpc5e5p1TIjCVCBDtFKPCkD0XOY8sT6NZpyuiWhIC86IbmmnAecFaGSa3Dnbr5mzcGYquCynclpzn7cfDxvIEJEAoqY1rlyI6u5b6E/hIKydyHAC8uRJzyF3jJAJ4RK84rqcjQdkSwQyVnijKQmca5AHXqz2m6zEotVFQ4CM9Ou/rq1Tw4Zz2TccqPjEZu1p1gA4gLXfv3kNHfiOfh6EoYgOnK3rHuSOsZ97OF8PC8gAGJMJQFjrh5J8Fn/ABwYBDTHtR5Tv68eVqVJPZ0CC26TBIGqTcSUIy7XM7obQxQAy6AJXg0Q4L18AABBaSURBVNPh2vnlshpdbuhUreXioHinkLZhARlBWopEWKrvb+vrtS4ylS4DUXFh0FyPbs1HKrus2sUEjeaMnw09hcWv4BaXdlvYBTAlUpiLBWTmAUR8IoJ/sqRa5uxt1nRqDUPxZBXIlneQMbFM+snqiNYg3jnLChMl02PMU4uL4PdvBGXz2XYFGA5b5wZHA1ykFBMkJh2IJZvZVVkv75IDFV2aL2YKhZ1AKzaQQTe4PyKd3rYL3mtW/x/6YioO76RdLt/nHWSAgIYirxxsEdoXoMQmE5EGYDhPSYl+eX+L1abA0QAYoAAOFOkPAlFNlZn6Tkj+vrFBazxZsOrptXXyzLo6eXZ9vYzZ2qjJezh9nakvxQYyw9EwiPCxQVMC65Qe0oCvELa8g4yJxVTHF/bVKb6UAIOAiAP8SrRgYgFSikYScR+S8d69YLXoxK3BysGcn35m6C3snAdl+d65fvU11bb1qAVqn4hiBZmhFe05MQbwBbKMoZNW9nvN1+u8ggzXwblg1OrzMNdqH2CexERHo9ziaCWGiYjDIrVvEBEDgDWC/rmpXns74LREKQagzh2rDLDhZ6pupV3SlecrZpBBLxzULDdIi3j8hqT+DDfQ8gYyDXpTS3i2Q8hnt1KmE1uSBnCI0evGlakj9OBAqrRTFwMk1A6SLk2vCeKTWKLmHM4jBgSxUJbMCYwwkHGvAI0oCAtNvHLQWjcpkxb09gc529d5AxkciMXf8QGhXzHZTgA43/NUEs/DeekLDW6JyROKEUEVNNXQn3PRN8I1yN65nOpTaH4yJ52c7+HeX5lC6/Q6NXqyXbGlKECGQCJFBZGGUxNOkkrZN0RD5H1jeqU8t7lRasKD9Se4GG2WEKX3zLO4mPlvsuPHAWRwcmoffrgoIK8dadW1z50GTrbASef/eeFklt4U17jcDxcG5DNDiDQDEDJg755Nu6WQho2cohJL9WJDTHU8KnTccMePBcgGDCYC7axVQDyXrj3DteUFZHAc6hvn7A2pQ5XUFQOkVEdcFyj95FERCHaCjDAMvfwp0sVqJD0m1fn4LlOQ0fe/UMJKQ90j38PNyBz50xpr4VQkyXBteQEZ+hgpzcQbWcoF5dQNoQAZyjwFvIlB1icUg4za0qgFrDkF2do62e8bKnbp15hisvtDRfAidumGdowBvxkZHyw12NKZoodojtGXc5DBpAlzUCPImuH4q5JNgpN4iMs7Z1XKxLebEopLwHu2Nqoiwe3iFBlzMgMyh0uA+yOva8F7LZqCM1QWRj5Bdv3AwhrLDoelsT2eYyglP31eQEZrpMP+iNXULY1GJhS8EjjH5xNoHaz449Oiq+L8fS3Cym5umvhmA7IDcLIkIJsPyOb6rTqEJJw6n5yMB5aEA8J2PACkQg3XlheQ0Z2Gqm+S8UhbdsvJTMUOWRp0A4Rz2dVX/KgUr1JBTZtMQlRDnTtXIFNOVmAgwzrHMYvbKBge4SBrj1q9K8i4SKclE08+gXEyDPaXW5kX9kodAEe7TwLhePBJeMRH5BS79veZgixZPhncgTRu+ojRl4N8uGRAzzcnA2R0/kanJbFyuLa8cDIyAui/la5OxmRBKJIBae2EMxe3hX2Dm1EbsOFUm/ZitVc28X/7hPOafH1+Y4ngFGElmzOWzFgcwvj5uBdnmIauiKRN020nVbM6HoB86WQ8WJaf0TfyORmAwNVA6s3YNK1LCIW7A/cEXBCORYq1c4vG+6QiFNMwCgt08Xu8/+gkcBaUcbPjpOR72h1UJ9HztLjXBjKycRHZu853SEe0dxDIiDoQ9GeMrLZLerjp2GiuyxH/ILn7dNlR/S7DzFg7Z071mjGQKDB/X/PI1skABGv2MKHoBrdMq9S1IVMRx/4d/h5EJv6yNz8Ia/skR0xb86a6evo1gL7lTLsuhfirZTXaxfCu2X5Vfu+a5Rdeo5yzlji+NwpM7OKXsV4KkNtARsCdRVw3nWlTHdB5/Z4+K8uX1U+e3dggDy8OyLdoHT9r4NqzrWvTZJj6SXr5w9l5+Oyb2/RrO32SvYZr80DdN5BcMKKtS4jIpNDdetmRVp34VHpLIqJRz0gMk3U0j/gjGq90TjTvyThgyRh+s+l0u6w4Er7UQZEuiuz06UK0EXCHKznPkwhklLoBTEQ29+EM0SA+8aizIvCesk5dUHXZobCGuwhSX752WFYfb9P8fqqouJZ98xpkcPOHlwR0PM0dI1gng4hMAlagycD4/PjUiYpOoPFUwvrpjqiZBa09gyxNvY5yTau7DXoS/iv6mTV3xi/vA10VNXPUibAknIzMDlZ7m7SzSRMu4VzOjU8ADT5B7tW6rv3al7s58ht+69TtvAbZDQO5ZTs+7NAxOcecr/c5V/y5ESYAwtJ0DuUfvWQoK9AJNH5PmITkxW3n2rX3lk6Ug1Jci8kDB6l25wSb03BOp06m2SATy3XJZvRCq3Ge+cflYzrX5rfOzVOQ6XoBPnl2Q70cqYqoweK8Xr7e5wVk3AxWYXVLXKtqWOYGK88JpFTvjWX4jWk+XdCLfq8sVAooAFMy0KRLyEQg49pYavfNq1LHJqvfAQi9broXSPF7L0GGuwQj5MVdTZZV7hDNKYbh+Vd5AxkT0tndryKT0n6UaQiRCljO75hsjACyC/BbsTQhYSVEEzoRSny2YEsEMsbBWKkKopJ86cEWzfDFyczDQ+A+2+sys16BDGMJy5peIqT6NHUOrmXwHEkpTpg3kCEemIwT1REZvbVBbp8xuELaCapE7xGb6Gc4GXFX0AMfHxlrERFiotQO0YxbgZK4QWVx9hK5BK/Rp8jsoN8EjlszBsNJib3SbhNLecdHHZqVi+WM/kcVN7oe185k52E5Zasgx+1hrp/OkQcCX+AfVgd1QQj17aUAQa6/yhvIzI3gOKVhLlU1OC6ZvHQIaH4LAOCGiATARhCd87JsIZkZ9Dajnxc7oPkgENHPab2UaqdomDDV0+vrNF/eXM8cATnZDbhC0A9ZgIyl/FjTidDZsYHrcD231zTjISefB4a+GjdPq3AVizXjsh+J4bIQxtSdTfJh0GqeZ+g/HMe8gww3Azn5/9rUKLdMr9TW6HYCuX0NOHli0ZWIWd44xae5at9Z4NcuO1RV49t6dHmNLvwAqGkbRedCMkapUUy0/2BhlS6RiHGS7AHgulicgO2rL/q0tfldcyrl/gVVek6u85OlAfnx0oC6EB5cPPR1GcsDXHtelTqL4dZcxy09zO8Y87VjcV1Uy/pT7VYvs8H+67xiLe8gQ/8kN4y1xAEB3ChdS9MQ1BwhLHoI50HEwCEBADoUO6/5DOckRRapdiaICXazZrq5LmAgmE8VPLoQfjW8/oCfdBs312VMGqHQa2cGMOjBOGi79dyWBuWq6JiJLNl8oizvIOOG4Wa0AqcXKhYbFUnJuIYBktsj52HSdeJtJXHmM8Doas9AjNtBZ65njq6uaRub2/u1/45r8TChPiDy6TUy3AADzHkHGRfFAAhH+rR1wOit1oLuPMUQyU600mv39IB2WN4sCIaeaNYAyCfHSnatYQGZARohGvp0sQgqgVzEC8vXDCe4lBsNZG8k5T7m+wy4XS7uDYAhkqHhmG2NGnwPJwiZJQNBrj8fNpBxY+gLTZ1x7TM2anOjKr3oMhDNK/HpdlK5HjodPSUwJlDs2dHP7Duf8T3OZH7Lf4ZjvOa+uDbju3tOpS4oS3MZKupJSigEUck8DyvIIAKiE//Q+2Wd2u2aRRxIxQFsKPFMoheA4xxMCOcDIADFKOmfnVCufiXcIawrifWJ0/WR5TXqE6PF+29X1MqvV9TKz1+tEazF771UpW4MOiJiYVIAjMKvRoOH4zZgsh/NvQB4GjfjdCWNCjcK0mG4K8adnHFYQWYGQ9M24oEf1kU1nYeEQhIAYf9YhvjEkooum7Kc7DeAC2sRnQVrk7oB6jmZnJ+9WiOPrwrK0+vrtZpq3t5mWXaoVdYcD+siFaQObT/XoUvubD3bLqzQtuJIqyzc36LrbOK0JSv3yTfq1FVC42AKkslB+9QAp9NxORIo7aBx+xpwcS7ogYLPcoSAn/oCYqqXGhUbwhbIsSBABi0ICeGpx1l7IhDVrtVMIMmC+LZQaGnIe/ccvzoa4SA0xaOol8VC2W+b6dPvaLNOT1kmHCCxXB+c6TcrarQOkUZ6KMek/dDvjN5lOG9ZAIuFr6gRDYZpaBxXdwvcQff2uDY6Zoys4kYDmIuN3boWJYUygHDxgVatA2XcpNmQz8U4WZiLjju4KuCkKmLNA2LT8RRI5v2AKEYsw3W/OLFCAUwXbrgrDujNp9vlfH3MAliCzI5CwFnBgAxiGPHZ3dOvk4zTloxTuMeSgy2a4Um+Ogu0j9/eqPll1Fz+a1ODPLe5Qd+TjsMiE/Pea9a0IJb123i6Q7Z92KGdHSnQJSJApi5hqFCn1WgY/RCgOzM3iEk6d+dv+B9L9CD2K0M9GmGgzRVuBApMKD7+y9o6Xc8JMQuHRiW4aYpPC2vgrohbmtBw5D35czdO9mk9KbULPDD4FblXunBvO9eh0Qx8jtCLMRXqVlAgM0SCXkws+hoBaNbmpi06MUK4BwChBRXBccJGcD4yTQEl37EWJCV0cB/yygg8AyIq2TmnHSQKIHPhLI5mzJwbhzM5Z6gAjPlMMKrV5wCDpEWWgp66q0lTwJ9eVydPrg7K71YF5fGV1pEu4E+trVcxTH/c+e8167oEb3/UoQ8I5yQ2yr14Nf4sbn3IvxYkyJyj1okbaJlOI2JK43TvgYNc3nmiASW/YZINZ2IihmNj3IyDsQIK6hPwD8J9qElARJPrv/t8p5BYyFKLHOnvz7I/JBOwcBdZtAT++b95YIbrnjKhY1GALJMbK8T/GG4HBzLAo1wQAJksXo68J42I7Al+x8NSDBwrGc1LIEtGmRx/bgAHeOzi27xWUBXAgqhekKEEMi+oWDpHSgqUQJaSPKUvvaBACWReULF0jqQUYH33EsiSkqf0RbYUAGAlkGVLxdL/k1LAAKwEsqQkKn2RLQVKIMuWgqX/D0kBAzJ+eBVvSluJAl5RwA4uc86r+vrot1UCmiFI6Zg5BcAReOrt7dUjr9mvisVi+mEJaJkTt/RPAvUWwHp6eiQSjUpXJHJpV05muFkJaCW4ZEoBsGOA1jvAzeBo7OonMz8ogSxTEn+8/2fwk4wKg5yxBo0lwCUjWelzQwEDrqGwMghkiM54PF4yBgwlS8dBFLCDayiA8eeEIOvu7larYNDZSx987CmQLsCSgiwajV6yOEtGwcceV5cIAMAMHi596OJFQk6GCYpVwGY/sRvW6OKapZ8UGQUy4V72WxwSZPzYeZES2OwkHLmv7fOezV26Apm5gP2iztfmN6Vj8VLAOafmfbZ3lBbIzMXMxZ1H8z1H53fmvf03pdf5oYChfapjsjnzYoQZgSzZhe03gYKYaDe/SXaO0ufeUgB6J5oH8xm6N6Eg3udq8xRkZpAGSMmO5nfOIzfKf/K9mYkYjmtzr2bCc3HfyebAfI5PNJpjl1VOQJYpsXJJ7FRjguA80bl8mpNd335tXud7A2R4E3J57yWQDeiPJZDlTlz+f/b4zMdsV1RUAAAAAElFTkSuQmCC;" parent="1" vertex="1">
          <mxGeometry x="337.2" y="1570" width="92.8" height="90.98" as="geometry" />
        </mxCell>
        <mxCell id="ncc3csSP8lIbkbu97Iwq-122" value="" style="shape=image;verticalLabelPosition=bottom;labelBackgroundColor=default;verticalAlign=top;aspect=fixed;imageAspect=0;image=data:image/png,iVBORw0KGgoAAAANSUhEUgAAALcAAACqCAYAAADvJt7aAAAgAElEQVR4Ae19B5gkR3m2kISQdNJJpBOSCFYwKIAAYVlIFgKRREbCJtk/YMAE20Q5CLB/sDAmOGBAF3Q57uW0l9PqTpdzzrc5TU7dk7pnZl8/79dTu31zs5Nudnd2t/t5arqnU3VVvfXVV1+qKwAgHo9L4nGlW628g99/9OjRSoshz9VKWarxHaO5Pq5g4atRibXyjtHcmNIz8/yM1s7ugDsPGGqlo1bjO0ZzZ3fA7YA7Tw1cfKoanWwo3uGA++J2lH9D0RB5PqMq7CLfO2rZEtWQI2nPxhxJ5bncsozW+rii0opLpVKoRjJNE4ZhIJFIgMdMl/tet9t9yTtUPtXKo79vVPmwTNUoS7F8SilPvvro7735zieTScSz7ZPv+uWeU2Xor84qxWjV2JJ8w2qp59LpNJKGgUxPT6mPVHQf88lkMhU9W+pDPT09GKx8WJaBLg/LbaZSAu5S66CS+0qpNwXyUt/vgLvUmirxvlIaqcRXFbyN+TjgLlhFcMBduH7KvuqAu+wqkwdKqbfhS7mTyUuGWDIpknqAjC2lOfSXmzI9MFNppNIZpDMVPF9qftl8zEHKZ8DL09ODpGkiGk9InZN1VG1BLrJajGRNgZsfU60kPHcyiXSaPGSPgC+V6UEynUHUzCBsZBBIZOCNp+GOpeGqJEVT6NJNdOsmXNFUZe8oJV/moxmS10Dm0y3lMQa+PLE0OiJJtARjUm+eeBq+RBqhZAaakUE8lYGZttqMbUfwV4ILsljEAVPu82osGDTKbf8Y9VGV7jlbjscTMMwUYkYKoUQK3VET50NJ7Hcn0NARx8qWGOrORzHjjI6pp8tPU07rmHxSw5RTGqaeZir/HaU8w/czn8mnNEwZhHyYH8tWyrdVes8LJyOYeDwkecw6q2NxYxTr2mLY0R3HcV8CbREDvngKWjKFhMnR0QJpOXigxEVJTezP2SfMgwZu9i41obncfdJMIRhNoFM3ccCTxILGGH5xRMM3t4fwhYYgntoYxEfXB/CBtX68d7UP72FaVX56rIJnKslnpD3Denus3ovHV/vwvjV+fHidH5/cEMCfbw7gy9uCeGZvGM+f1LGuLY7TQQOBRBrJFNk/S5pTKj4IcALbfj9xprZBA7fKsNI9v9nM9EAzM2iOGNjYqmPiKR3P7Ingqc1BvHOFD7fVefDauW68eo4br5rtxitnu3HzbJeThrAO2AZsi1fPduM1c9wYN8+DuxZ78Z41fnx5Wwj/dkjD/MY4DvlMYSPjZFlsAO0PLwSxAnZ/9wwLcLMvEtjueAZ7vQamntHx1W0BvEsAbYF57CwXxsx0YcwMJ9V6HdwwkwTHLYTozkVefHBdAP9yQEN9axxnQqYQME5CC20jAtwsYzLdgzY9jWUtCXx7VxhvX+7F7XWkzC7cONOFGxxAD8tOTZCTKJGi37XQgw+tD+CXR3Xs9hgIJUnB+4f3sAc3C6ebPTgeMDHhdBSfbQjiLUu8eNUct4C61imU832ljaIK5LfWufHIKj++vzeC1e0JdEbTQtjyYXxYg5vDUsToEV7sN8d0PLk+gDcs8ODGWQ6lHqmdhiDnfOmty3z42vYwFjXF0aKlYOQh4cMW3OypnFicDJoyTD262o9x89wO+zFK2K+bZrnwpoUefPHFoADcE8+IIsjOpAxLcBPY7KmnQybGn9Lx2Bo/bpnnsCEjlVrnKxfnUOTF71jkxVe3h7C2PYFAMnMRDz4swZ3OAB16GjPPxfDJTQHcWudx+OtRQrFzgX7TbDceWO7D9/dEsMttiOZZSVGGHbgp3oyZPdjYkcTXXgrjjfM9IB+WW2jn/+ipE/LgD6304zdHdZwN9fHfAwJuemlUkuhcUGwzMj1o11P4+WEND67wgbyXA+TRXQckbrfO8+AjG4JY3ZYQmyESwf7AHYlEKsInMT1gJq8cbmhkwwI8tSWI2+s8zgRylLIjuQTtpllu3LXIi58e0nDQZ8qcrD9w2wlozWgoSbWPBUw8uz+Ce5d6RUGTW0jn/+ik4qTe1G18cH0As87HEUxmrUGLeErVDLhDRkao9kc3BETW6fDaoxPI/RKwmS68cYEHPz6g4UI4BbF/Hy7gbtZS+P3JKB5c7vDa/TbwKGdTqKb/0tYQGrqSYrdPU1laBPa31QTlpmybvNQP9kTwJmohHQmJM5HO05FpbPWBdQFMORsT54eaBzeBbWYg4r+/2BLEK+eMLk0kFRZkwSpKeQAwkqk+id7blnnFgpDeVUaqxik3pSSa2SM2ve9f6x9VZqsUdY6b68br69x4w3xP2YmaW75jNFlFcmT/m+1h4bvjZo2DO5WhCDCDiaejeLTeP2qGY1Khuxd58alNAfzdrhB+uCeMZ/ZFSk7f2xPB01uCePMSL26aPXoAThHx5xtCOOwzEEmmxHunZnlusiTtehr/fSyKh1b4Rg24SXE/uNaPyaejOOxL4kLYRJOWKjnR9mbGuZhYS5L6jxbpEhU6T20KYlt3EoG4WdvgNtKQIea5QzresWx0gJtsxM2zXPj0xgCWN8fEWZaiLXsYBLJrhRK9/Ne0JfD05qAYlo0WcN8y14OPbghibVsCnqgpERBqlnLTy+ZUwMSP9kdw/9LRB+4VzTH44ymJj9JfI+U7H0tlxFputIGboxQdvxc3xtCtmQXrbchFgQT3Cb+Bf9xnaSZH8mxflc1OuR1wl6esIrifWOtH3YUoOocDuI874C5IgRzK3dcBGN3gfWv9mHc+io5aATcNXfKlRCqDY74k/mFvGPcu8Y6KCWUv5d5g8dz+uCmh2/LVT3/nyHOvbYuPOp6b4H7vWj/mnouiI2LkrTdFDAaNLWF0IMZTzk16wsAhdww/3B3CPYtHF7g/ucGPJRc0uLU44onkJXWTW1f2/+FYEquadXx6k+WpNFomlK+d48bja3yYdSYiIdty642BetRWNrjVA+XuGZDc3jg8ZoxtLZG0gdszqij3J9dfDG7WR24d9fc/HE+ivlnHUxtHIbhXE9wamoOxS4iCBL7PLiVZLkYrXlmBBi65QyxFXw5bEoMvZrEl+eoot87U/6iZHvVsSXsetoSUu1xQq/ur7qxAaYkzoXREgUqSVGxfkxNKxQfl7h1wO3LuYoC2X3fAXePWcr3Sko0BOHLuPjGfHcT9HTvgHhXg7sG69tGnfnfAXQq4K7WhrtJzDO379KYgVrbEEahI/U5wJ0Eb+FvnZ8PMVenbyrUtH8zoug64i4D7hlkujJ3jws1z3UOWxtV58LmGEFa3JhBMlD+hjKes+C5/tTWENy3y4lXzhq4sY+lgMkhhOBxwFwH3wyv9+OGeCH53MornT0UxPk/i+T+c1OV6f/fke66kc6ejYr/OMBaNkRRodM9VBcrZaAffoqextj2JqediGH86fznU97AMXM1AUp7yqvvK2UsdnYrimb0RPL7GL6GIB1qZ5IC7ALhZ+Z/ZFMSKlgRatTS6oml0xfKkaBoduolOLpTU3z35nivhXHcsDSbGv+MCSMV8AfOBnu55iXSPvMMVz8j78pZDfU80ZZVHr255OqJp1Lcm8JVtIdw2b+D9Xx1wFwH3X70YwnZX0grukg852XPFlqUo8GjJl6iUGax8qCRiqubG2I47XQb+dmcYrx+EuI4OuB1wX4JfdiIH3JdUy0Unhr2GkmzJFxuCaOhMImJkkEj1IJkn8XzMSAs/3N89+Z4r+Vy6B4yyxfUzK6Xc9NThWkFUhBXLl2YOXNaQ/H21ysP30Dpxa1cS39oRlqVcBjosh0O5i1DuT2wIYPa5GA75DBwPGDgRMPMkA0d9SRzz8Xp/9+R7rrRzJwMmWrWUxN9giIJyJ5QENleeaNNSOBUsnidNHGhazFS98hg46jcw53wMn28I4nWDEEfdAXcBcFPz9cAyHyhCo/fPswXSP+8tfL3Qs4Wu/WhfBD85EMGMszHpVFGDi4yWxwtzFd4zQVM6KZe7o5teoTx5TcpT5TL9876I1OU7V/pkaURqX/vTLlbjvAPuIhVMBQq9qBn/eygSY29w9a4vbw3JQqOVybkz2NKZwF+/FMJ9S734owVDUxbWH+uSdTrQwGbncMBdBNxsBPLe5A+HIo1l1NLZLjy9MSDLeFemocyI+v3PqaGs80hwnqEoC/NkXQ4GsAcc3Mr2tdw9Z+v5Nscq0LEKLIddKUa5OTkvF5vq/oqdFRxw9/GipHIqboljFdhXL6WAfEDBTeqrkJ6PEpd7zqHcDuUuBdTqnmLgtuOvXJwOezm3qqSh3DuUuzxqbW8rB9xFJpT2ysp3LBNOTjoHKs104ZWzXHiKzgotlVJuy577M1uCeF2dtU7ngH3vZdZnvjqu9JwD7goag8Dgwp4McE6x1kAmru/C8MOf3RLEqtY4Apdh8vqFF4Oy2i6XtBvIb+a7WT+sp0qBWY3nHHCX2QAUZRFwdy/24uFVfgn6wsAvA5UYMYmLFz27T8P27iTCDMVbphKHc5W9HgP/elDDJzYF8MS6gfte1sMjq3wSLvnmIQ6XXJPgprQkN2UytRHageGECeyvvhSSkMJLmmNY2hzDksYoljRF5XhpSwzVSstaYljeEsdOV1LMUOMGnRWsQOq5ddTff0aF7Y6msNudFOq/rCVe+PuaY1jcVFl5FjbFxLado8TtdUMbLlnAvcaKOJUvtAPrS22DNqGkRRplkLmJhjy04XhmCMOpcamSB1f68J9cpTZoQEumEDVS0BIG9KQpx/xf7ZQw0zDMFAzThGmSel9aP4XOmak0+A4aRBX7Nj1bHpap2L251z0xEy92JvCtHSHR6FJxUw0Wo5J3MOLU+9b4MeecjrZwQurOXkd2k95BAzd7lDK5tO9prE/jpKGMFUiW5KF6H/73RFSMmVKMlZ3JgAFeWHH27x2I48HMh3mVWwZPLIV5F2L4wNqAqL+Hku/uo9w62iNJiRVoL8+QUG41VNj3HECUnPsf9g5dCGNS7j+p9+O3BLeeFjNURsMiq0Be2AoK3zMwe5q9ptMS5XVA87E5RdgBYG+P3GO2T7qnB+fCJp47rOGPFnllUlkJxa3WMxfz3MZF0XEJchIjtQ0a5VYZ5u4VuIcyPjclJPcv8+Gf9mmyqtphv4mjfhNHvEkc8dGs0/o/UPsjvoHL55jfxMmgiQ49BZ3Wh2V44hDcdESmvTbnIzfTEXgIWRJ2kIvBfXHweY5KjBWoNgfcMyzjqdfVefDIKj+++GJIVsv6xo4wvrE9ZCUe74gMUBrYfL65IyLO0AsuxCSetZHOoG/KpWCQf0+bcfp5TjtrsSSDGcKhP0rfH7g5GjFoKAGtNgfcWbEhKdJNc9x4zTwPXlunkhuvrWNS/wdqP3D5vG6+B+9a6cP/HNeKrkSgQKH2XIyrRUvh2f0a3lIj4aULgZthsh3K3Y8cXEw3lQnnCNmT5frQuoB4y4QS1mRSgbfQnlSb64PSkZoiQCqd+qOmg3m+P3CzLA7P3Q+wB7OBBjOvV81249s7wtjWlRSfUAKglI1xURgqYtKZGN67xi/az8H87v7yKgRulss+WXbYkhEM9htnufD6+R5Z4/N8qC8GeDFwq4nkiUAK394ZwT1LvKCDRX+AG8zzxcBtL1vZ4FYPlLu39yj7B9SCtGQwG2ew8qIs+pZ5Hjy+JoBlLQl441mxZgmUmyyJN2F5+rxntV+W8B5K2ba9zoqBm6LAcrGp7necFYYJpSelpW8lRayHfCZ0MyNiwFLYEoaLOB4w8R9HdPzxYi9umlUb/DZBPqDgJtVVSLdT4EqPHco9MMM9rQTfv9aPhU1xuGIZ0FuewC4F3LrZI6sTf2ZzEK+dN/Sy7XIotx2H5eLUcVYYJpT7zoUefGN7GEf8psQUFO1nieBm/L8/nIwK5aeZqx1cQ31cjHI74B4mAL0cID1a78fvT0QlQGa6x5IilEK5aVS3023gO7sZQWrgA1uWW0YH3GWAd+xsS3HzesYSWeQVycDblvnwzuU+vGuFDw+t9OHheh/eLckvxzz3Jyuse962zHrmzkUekUxwGOc7y220at3PiR8NwT7/YgjrO5KIp3tEI8kJfTFwcyJJdfvM8zF8eH0AFCPWykRS1Y8D7hxws4FopnnzLLfM/N8w3wqKQxHXu+r9eHJDEF/cGsK3d4ZlAsYITr85potWjzG6J52JYvJZK006zTjXUbEg/M1RHT87pOEf9kXwrZ1hfOHFEJ7cEMBD9X7ct8SLP17kwR0LPGB+t85zS/xqGvvbY31UGzy0TX/LUp98F21KlFS7GLgp/mNI5BYtjR/v13D/Eu+Q25EoQNv3Driz4CZwyDO+Zo5bhth7l3rxofUBfG17CP96MILfn4xi9oU4VrYl0NCdxB6PZSR1JpRCcySF1ogh9hiuWAqeeFqSm/GuJda1dQ9Dmh3xmdjtMdDQlUR9WwJzL8QloP0vDmugtePXXgrjqU0BCdD+1mVeMOIUozSxoUgdxX2rCnJkaljHzXXjYxsDWNYchzeuoF2cLRE7kkRGJpIM9EOWxA6qWjl2wE1KPcuFV891456lXnx8YxA/2B0Raru4OY4dLgNnwym44xkJJhlN9chwTMmNke4BbSooDmOASnq8pGgu2kPzTyulegCm3vsYZTVtvSOW6hG1tS+RESp4LGBKfmvaEqhrjMuKCr84rMv3kNLT5YzfOC4bkqwX6BWAnX6O9y3z4scHIjgetCaSaoJVjHIz4uz5cAo/PajhgeU+8SWtFUDbv6MmwR0IBEDDltytmqJARakZXozGQgQP2YYFjXHs9xpo1VPwJzICPuYrE63cD8r+5zCtHBV4XM7G+0kJ2UHIw1K0FkpmQMBzRYUmLYWDPhNr2xKYdjaKfz+s4bu7w/jLrSE8uT6Ah1b6cddir9hzvHKWuzdUWjEWhtT2qc1BrGiNyyjDb1BbMXAHkxkx9+Xztw6xK5kdzLnHNQnu1tZWJBIJVde9+2qBm3wsZbvkdT+1KSjG9es6EkKNCGjGkrY3du8HFDhQ4C5wS9mXpNP0WE4ajA/uiaXRErHCJG/tTqLuQhy/PhrF3+2K4OnNQbx3tV8mt3cvtMDOeQOpu/DttrkF/791qRf//6CGRs2i2jZsi81FfxNK1suFSAr/dUyXCLjMIxdUtfK/JsFNQ3JSj9ytGuAmr0mrNUo3ntkTQX1rXBZSolUbqXOl20CAO/dbWCfMh+wPWRraT1POfDaUkjnA8pYE/utYFLQv/+C6ACjJuWORF7fUuXETpRnZIJRkwT61KYDFTXEZKXKruj/KzeqhRIUd60tbQ5YbWQUs0WCBvybBnduo6n81wM1h9OMbA5hwOiqqZg7/5J3LpdTqm9R+MMFNDxkqWtgZLX6+R8DOUYcSjGOBFF4kZW+MyajE+OJ/Wu/HGxd48Lq5brx5sUW1GYieqzXkbv2Bm3m26ymRAD26yj/kbmTFOsmoATeHZy4wyuF78pmYTBI5OSyVWhMCvJeTKeGNZTKYQdjICI/sj6fARGpKnjRkcAKaEcpIKsuOSdPQXCqZC6xC/xXlzqcW5/cRpwS7kYbYh5BnPxowRYY941xM7D9+uMcSYa5pT8g35sF2XraE97HcO9xJkSBRilOMry8GvoG+PirATR7ztjqPyJWnn40Jb02QXkqz+qBFEBLMnOhRpsuOQCrfrKVwLGBglycp1HF9RwKr2hJYLvFL4mBMkJUtCRGTbepMivSDxkjnwtayd+wMfJ9a4yYfuPq+4uKjQuC++E5I2QTsGYtnJ9tFm2uC/YDXQGc0LR0h9zn+z0e52TH5zOQzUQm6c9Ps2lK15+soowLcLORjq/144UxU+GuCqxiwSWm9iTTOhUzs9xjY3JHEgqa4eL0/uz+Cv9kewucbQiI6/MD6AB5f68ejq63ERUQpI6c04SsvhfHDvRGhmvQv5GKpe9wGTgetdSs1scDLB7FLz5UD7tynFWVnZ2Wip3p/dZAP3Bx96GnD1RnetNBTk0qbXIDXJLhZubmJ/F7CZNySZFlxS8iOvIPy3P0R8U7XDJpz5nk/V/pKZRBIpIWy04t7+tmorEfz5W0hcb+iKv3+ZV6JOEX+9bb5HtxCn0lqFOe6RVbOyRqPx81zg47Eb1jgwZ1ZVf07VvhEOcOlrv9xLxVDuihQdnQnZTGpFs2U/Pkd/EZG2WJSdUF2xB63RJ0vZ6/eyfrs7zl7PryHfHl3LCVUW9azmVO7EhI7wAXcjDh1PoqaijilRFFqz5ggsTIjTlE6cFudG1/aGsCa1hjoF2gyvkjW4o3v5nuTqbQEmDzhN1DfEsMvj2giDXjfaj/ell1DhoClupq2zyJay/pN2isz3zG/gfczsaPRluP2+R4RQz6y0oePrPPjCw1BkBf+3+OasDf7PUk0hg0wwA0XeFIxUURSIhGnzF65uqqfau5VPqojsX5OBgw8dygiMQApeclX1lo7d3HEqaREnMqtJzXClW3yevToUVSSmFEuVSHFsSJOlUa5OdkhGB9c4cWEExG0aaZlDJSlWHwfQc41F6kmJ6WmnQhV36T0FBcSyAM5aSLwmQcBf8dCjxhYfWxDQEJE/NdRHfUtcZwKmPDF09BlHcw0kmYKJqNbqQ5agALn1mGp/wkABWweM8TD2ZCJ8SejwobRKYH1Q3MA1rF0dpscvVZArsCdj3KzXOFwuCJ8EtNVtecmf9grCmSswKXegtSDFU4K+ZcNATS0RxGj/tu2qdk/bUNo3/H17WG8bblPWIqhaCxF4TlRo1yaLAx59h/sieB3J6JY2ZqQtTC7dBOakc6KL/vnm21FLfuQncAu2mRdUWvKoD1LW+JiKMYlrj+yPoB7l3hlTUmq84ei3gp1pEI8t+roqnLKptx8sNyHVGb59r3g3lc8nBqpyp8wYOWRME77YkjZ/AHZWFGzR9Z1JHBoT0Iemg1EkBWqsMG4RpDw+7kQKZfVo0ntpzfR5sViXVa2xEXqQV9HSl0o1elvcpivHoudY8Or4Zv38t3Mg6JAijlbtbSERKapAt3L6OhAUwASHM41OBrVelAedl4mtZWL06pSbn5EOeAmMP58cxAb22NwaYlelyk2FGf+NPyhBwkbhXx5LYA6X8dR7BWVL/SYecdyL57eEsRPD2mY3xQXzWRjxJKvs36qAfRccCsAqD3zYB1SaUTR6C63gdnnYxKQ5y8agnh0lQ9vWeIV010JRF/i/CRf+S/n3KWUOy3sLlkuRpziXm3DBtwE6h8t9OD7uyNoChvQE0nR6LEgtNpjg8xtjIuR/W3zaxfY+RqWVJ3SmTcv8UqMkK9uD+F/T+jY0JGQpa9d8YzI5FnOSrdi4La/VwHdE8+IYmxbdxJUGP3T3ojY7Ty0woc/XkTWhetfDi7rkgtuhnEmoBlpirZLduO8YQNuSiUeWObFr47o8MZSSCT7wK0bPVjbnhDvk9sXeGpehZwP4KTmBDmpIp0bHlzuwyc2BoQ/5zLaVNJQ4UTgVbKVA26+n9mQ1aN2lOyeK5aWjkabdQH6Pg0f2xjEfct8Mg9ipNzBGCkvAnfEEGkJKTaBTYAPS3BzgaT3rPLLygdcTjppGL2Um+zIr4/qMhHiTD8feIbLuV6Qz7LWzWGMPgZb59rtmzoToIKokq1ccNvzUJpd2utEzB4x7GIkXKr7J56OysIBtO0h20LWURwwBmieYwd3WyiBaCzeC2wFcPXtw4Zyv2a2Gx9bb1m9RZJ94CaF4fBNi7Zb5taez9/ldCpSQsb6oxUgrQJZzqEAtwIL96xvjh6cC9BOvTOawl5PUoLT/9thHV9/KYQn11GX4BGKTjDShLZaVL0X3Oc0NPt1hMIRRKNRodq5YM79by9HvuMhm1DSfepzW4LY2JkAl8Ag5abGz0wD9Gv8s2Fg0VYu0Mmm0DCMfpnTz8XEOnCw2JJ8jZ97zmJdLAMy2td0RTPY5zEw+6yOH+0JSjjo960JiNO1UpixTJejZ7DA7cOc02Gc94QRjkQQi8V6ee5hGeWVVPnL24JiC8E1W5JJQxQRgUQGPzuki3bwciqtXOANxv0UwdGm5flTUTRFUmKclQuwUv9fDltSLA/Fn7Pj0SnEHzPQHIxJzBS61v3zvgg+vimAty/34U0LvWLSUCklJ5F7Yq0Xs06FBNx6lmqTJWEaltISBW6aZxLcnFBSdX8hnML3dkdw96LCCqDBAGO18mAnpVcRDcP+44gmoc04qeMEr5yNt5NfZhJb8RKD8pSTR+69zJOLWOnxhExE6XjBwEBkqWjkxvBuXBiWoTLuWewVy06yXgR7KcRp3FwX3r/Gg9mngmj0aojmUO1hKecmuL+0NYiXXH3gplaPFUd+lKruaoFrKN/DBmb4B3rc/OSAJvJmmuaWC2zeTw8bBrSklIWqfjo8U5Ez0BtNCeKJRLZTWSbG7Jzkzw/4DKxqTUh0AFpWfpKmESt8otgiVRaz2wKT0XFzXHhilQszTwTQ6LPArag2JSX28g0bnpvg/qutQXGHUpQ7YqSlsr6+Iywy8KEEZbXyprTnrsUecRh+sSsp3vllEmzBLid8VARRKbSoKY6DHgP+WApGih4/1dV+5nYWBe7c8+o/zXOpLKIdOk0Q/ud4VOK+PLEugDsWeaRzC2+eh5q/dk43Hl/ZienHvEK59WgMuq6L1txOtZnXsAG3TCgb+iaUZEu4gNHJgIm/3RUWTV+1ADZU7yGw71nswddeCskwTtky5czlbuR9yaNPPRvDRzcERGP797vCmHhKx4tdCbTpKVEK8b7L0Av1+1nFwM0isVy0wedEtE23VP/zG2P49yO6rEn05LqAzKMoWuRIpgzeXjO7C48tb8fUIx5c8GrQ9KgYSxHgwxbcDKzziQ0BLG2Og6JAgjtuZtCupyXwDTVmQwXKauRLJRX9IL+yLYQlzXHxsCnmWZQPXQQNNYuk1gxtIdGu6jwS/erPVvnEIYM25xs7k2KuQLc5cZXL97IKzxUDt/21HEVIySlWdMfT4t203WVg7vkYfghakf8AABhfSURBVHZQw1+L3b0f92dtXG6Z04XHlrVhymEXLngj0HR9+IObmrvHV/kx5UwMosRJGuIxHjZ68NxhXcJ/VQNkg/0O4bFnufDGhR6JW0JQuhNpCfhTLtEmsGkERXX5N3eEQQWQXSpxM31O53mEnyfwx5+OirFUVzQtsVwIsmqwLOWA2w50HjN/slT0V6ULHDWzcy/ERFP7xFqaLrvwifp2zDziQpOAu4qUW/Ex5e4pisq3sSDH/YbMoguZvJKyMegknQ58Ma5aZcm5SXUmnIrK7JtRpgYbnJebHxUcHHVIoeiryQZNVzDnY+0SELvdhojeCkWNunGWW+TnD67wicnCfx7TxeWuJZISJRFBnr+18rXgpecuB9z2t/EbyLqQotOFj6r/2Wc1TDzswebzXnQGNESjMVHiEI+cTJI1KReb6v4hW1mBFIh+ft/fE0FL2EA0azjFCiAo6AFP1qUUcdLlArIqz2e1jwwixPUuV7bEhMUy6E1vb+ESjkk3KFHZ7zXx88O6OEhQ2WGn2rnfrOxYuGYOXe2+0BDCc4d0kWQw1BxtvfktpKTlbtUCN/Nl2Tg3oOqfDtEdmoGTrjCaPCEENR2xeFwUOLQvIbAp51ZgLXc/ZBpKNg4nF3Tg3dEdh0+nyatV8wyV9szeiPCXhRo0t4GH6j+BRY0dKSfDqK1uJcVOSQOWiyVWAflVOh0wMi3XwKGMvNR64H1kV26b5xYly2cbrGhdXEfnVDCFkGHFTywH5NUEt71jsW5oBRjRowhFIqAChwBWFoHc2yeVCtz2dxQ6HlJwkzI/vtqPKac1NAbion7nxzKWB1XwBItEYapB9yh2JI4qlIgwiBAVNP96UAPFffSrlJV9y0Q2AUdqRmCTtXj/2oB0mkpHL7J1r2Lw0CVecMkQOi3Qs58gZ+yWUnnygQI325qsB+XatCeh2l2BW/0flhpKgkNkwIu8+N7OIPZ1x0RmywLTm4T8GN3KGERevEZqEOBjZ1lGULSg+93JKA77DZkAkhrRf7KcjcM1KfaJgIn/PqaLxSTV9aVS7EKjFuc3HCXpbvaJjcE+diWUsr63CE8+kODm3I0AJsDt4OYx07A0eRXKlw12+cF1Pqxo0hFKWi5F5Mk69DQWNyfEFoOOrtVo5EIAKOcav4XSHpqE0nqR8fwo26XnC0MscCi1a9aKgZwEnho/yvjpUkejMSq5yO6U812F7uW7yK7wvXQeZpzCfzmgifyd386OJXLyPB870OBmfZEFUdRasSWKiqtPGlZsCRuDlX7PEg+eOxgGVw5QiggChY7BPz+sgWsnslEqHZ4LNXo514S3nuMG7V4Y0IcRWBmnmx1RyZZJiUoFN0HN5/xJSypCG/YPrg2I13o1gZ1bRr6bowINnyhCJLtCW27WN9kVSjTYDmorBdwsNxM7tT2p8+pd+fa8h4Cm4obUmsdMuWDO/Z/vXfZzVeW5WR9KFMgVCAqJAu0VzsnY05sDWN7CiKaWOpn8JxUSjPz0k/0RPLzSJ+EVhoKCM0+yIBzaH67341s7wph5zrKSIxhIrRUW2FAK3Dzub+MV+inQTmRLV0LK+Ngq/6BFZSWhYJk4Kr5zBaUrFk++pi0uISIoX1c8eSFwK/CyzJRwKGCqvZJ6EPDq3tw64XmyHwq86ln+J7uiNnVd/S+2rxjc6kPte4k4lWLEKUO0jOTx7CDu75gV/cBSL352MILGiIlkmr3fillCY6od3Qn89GBEFmcqR3LQX37lnOe3kQWhPyTFk785qmF7dwL+eFqiX1mxSfoiQ7ERyUPaAW6vIx6zntghKFEhmL69KyyKGOYz2KOTgDzLHr5liQef2RwQy8V17Qm0aSmJQ5M0TBHR2QGqymmnsAQfKS/ZC5V4jvfYjaFYN/Y64bt4jvfxeQVq7tk51Mb/TKVuFYNbfRA/yp7iZUacUkCjdzvtJuouxCQ4D9/D93Jy5o2Z2OtO4LfHdfzFlqAMpxKQZ5ar6ry4UGnhqV2y1s0j9X58sSEowYAYruFUwEAwToOli8ttrwNSIQVw+3ke8zk6Z5wOJjHrXFSMx7jMCIP+DMWopOqfeSvJzzvIrjSwI+tY2xbHcW8MrnBMon4xshbLpyQcmqaJupx7ArO/xOuRiOVlw2cVRbfXD8HNTkH2xM5/KzAPGriFAuXwVwR8ORGnVMVyz4q9e5FHNHur2+LojqYkjgnfyUDu4SQDuJsSt48iNwbDoaiQthbVcGZl45JyMm7gA8t8IoajwRMt3Na3J2Q+wBgktH/pjSSVp/z8XgVsHtsTI2exXLtc7KhW5Ky7Fnl6g87b62OojtVIxRgxXL7wL18M4leHw1jVpOF8iB3bRCyRhB2sCoh2YKtzCpD2a4q3VgBXdcROowCuOgv/q029S/0vtq+Ycvf3YsVz04i9VJ5bNSQBTg0b+XXG2aBI0M62cpJDh9YmLQ2GHqbF2ac2B3H/cp8YyVOLR7bllbOtzkIRIhMnUCqpc8yL0gM6v/I5yqr5vew0lCIsakqATrPdMXbY0u2v2elJjdhg5KuZOH+gdpBWgewo390VxjuXW+HOhpJaq3rvb89vo/XmfUs8+PQmP8afiOCAKwZXJI6QFhULPtp5E4BMBJ8CPak0QUwqra5zz/8EOu9jByCgpa6y9ca64znew+t8Rm3DGtykGgQhF0ii2pmiMYrI7DN3BRROeLgUxzaXIVZ3XEuS6y0y2itlue9Z4xej+XuW+nD3Yq+Y0DJgDnnnB5Z78cgqPz66PoD/tzUk8Tu4Oi9XRqOR0smgtTKaiPbKtJW+CNxZUHPSyfjfDDDE6LG0FmSnqmVgK8DzG0kEbq/rxsPLu/GVLW787kgAO9o1tPp1+CO6eKyTChOICpSKtVCA5F6BnADndQV+jnQEeC9RyE4w+S7eqzb1LvW/2L6mKLeqUIqpaDHGJfDooEqJAkVmaiM1JOA5SlCjx+vNWlpWFCNFp6qZsQWnnolhwqmYgIry498d1/H8SV3C/DL60pLmBDZ0JLHPa4gjAN/D91EUxvzYkcrdCG7ypYlUWuw5TodM6XwcjZ5Y6xd7GvEer0GllKr/3P2NM7oxdnoHbp7Whttnt+PRZV34RoMLzx/2YFtzAO3BGKJJE6m0BVDFRxO0BL0CpZ2K81j95z2k1grkrHOpx+zzqg3Ue9T/YvuaBDepBSeMjCPIpfm4eBFtmmkCamdTVOEU2ClaIzBpdESlBEWJTLJsiJER01oqiniO13kfXbd6Y/lVAGb1DdzLqELzzkQK50IGNnYk8N/HdXx2SxDkrTlp5MiUC55a/k9g3zi9E9dObsOVk1pw1cQWXPtCC8ZNb8b7lnfgR7t9WNyoS+xyjqasS0UUCFBSZAVyBWgFajsl5zEBzo6hNvW8+j8iwC2NzeFwjkv44O/tCYuSgTYnlSzRpypHDXvqfzX27A/scOx47DAtWgpbu+IyYeTKvZSEMNj9cGBB8nayaZ24fnILXj6xGVdMbMHLxjfhqucv4BWTmnDzzA7cudAtnkEMLc3OTFc4Eg+OrIpWEKSse4KTrAjZDTuwFfuh+O/+2mXkgJuGSVmRHL02uNrXlDNRYVO6o2mh0PmoeH8Vw/PVBjcpFCeblKKcCackBgvXfvx8Q1CWGeTkmC5VwxXYN8zoxpgp7bhmYhNeNsEC91UTmvCKiU24fmo7eN0SH1oSJka5/cURTSbNjZoFcsrzSb3JenCCyImmAjcpuAIsr9vZknztqO7Ndy3fuSGz585LJfrhQymiY5hgWt4x5vSc8zEJj0CnVPLdahjMV0D7uWqAm3kxT1InerxworiwKY6fUDy5xQK1iCezsbDLKWdt3WuxI9dPbsXVE1twBcE9oRkvn9SCGwTYXb3sFVkthnO4dZ4blJEziizNdV/qTqJdMxGOG2LWqoBtZ094rCh2vvZRFF8Bu5z9sAC3anRat9Gb+iMbAuKdwtjTXIuda76riaBSGQu7kBXFKdZBVZ4aLu3A53HuMxxa+T7Fx5N3p2jweMDEqta4rD3/nd0MUBPEvct8eHWNGXipeqtoP51Uuw3XTmrClVmW5MrxpNrNGDOts19NKkepcXWWw8Q3twcx8XgY25qDuOAJwx+JQo9xImmJDQlsRa0V60IqL22RHZYvC9x8keoN8tbL/LkcOXcpjUAqwYnZnYs9wuv9cE9EIjjVtyVEWtKmWVIKfgeBycShkdIPajupECJoSYGZeMxEnpn38X5Oivg83bxatRQO+wwJWjm/0Vopjasac+mSty/3yoJSFOsNt4li0bqe3o3rXmjBy8dfwJUTmvCyiS14+YRGXDfJAneh54WdnNWNN87twKNL2vC1jZ14/rAXOzo0dIRiiEiwy6QsrUJQc1PgVgSIoOexus57ysVpTUpLClUcr7HyyOtRYUPlC1cv48oLjFRFI/855+MSAnl7d1IcUk8ETfEMZxxwgrVTTwtLwT3/M2wCXbFIkbnkH2XdNOqfeT6GXx+LSgxxerSQLaKcnKYCXMuF8l+CerDtQYrVT1WuT+8Sqn318+fwsiy4ryHVntKKMdM7e1mSfHmRF79xWgfGTG7BmIkX8KqpzXjH4g787TYvZp0O4WB3FIEYRYd9YyiBrCaZ5L8V68LzahsV4M6tUHrrjJvnkeipBPq7qaDZEBBb6+/sDstSfr88ooOTvd+d0MUBeeKpqCyOxP/sEDStfXa/hr/fFZHJK1dz+NN6H+5f6sOdC0mh3TJikDXKzX8k/r9+ejdeMakZV/2hD9yveIH8dhtumN7Hb19c9m65dsO0DhEdUmzIjsFJ6JgpLbijrgNPrnHjx/tCWN4cF5MG6hboT5lIGhdJUjj5VBrMUQ1uVcGkoKTqY2e7RPxGacVdi7y4b6kXb1/mkwDwXEWA5rNMf7rSB/5nYHjak9CKkffzOY4KBDLfNyIpcz+Td1WXBPc1L7SBfDYnkmRLCoPbAvaYqe14xeRWXDWpVZ6xRIfnZRQYO60Dr5vbLUsrfnJjAM8dsuzhZUmVaALhiKWSJwUnlVY8eU2B+0TACkdAUKnKGoq9gD3r63jRMQGrUp7rQ/GttZanBe5WXDm+sRfcwpZMJluSS7m7ZZJ5/ZQ26QBU9iiZ+NXPX8B1Ey/gxqmtuHFGlxAKa97EaFxePLUpKCPqUU8MnjBV+X0ycCVFqRlwc4ih9R69VEgNa63RnO8pja2y2JImiy0h9Z7YgqvHXxAKfD35aUX5p3fj+qkduG5yK66Z1IwryYoIO9KMq8c34rqJjRg7tQ1jKTNXz2RHWM5Z7ljoxecagljboqMjWOPgpgqcwWB+dSSKdy13wG1v0GF1LNKSZrx8/Hnhm6+Y2Iwrn7+AayZcEAXOmBndYAe4bmqHqOOpwbwE2JOaMHZaey/Fzld+LjJFA7b6Jg1tDMpTyyGMKXJjRH5a2b17pQPufA06LM5l5dzURio5N/nnq6mdnNwmbMh1U9pl0nk1pSlZDSb3V41vlPPkv2mbUmjOwnBwn9oYxMZWHR3ZiFPkuWtyQknpDg1ouGIXYwEOi4a0DZfO9yq2xRLn0a7kqiwPTdbkqgnNuHYi5d2WGp5AVsC+khpMqucnNQtFJ3UvVp+313nw+S1B7OnQ0OUPQdctG25lEku+W21DLgqkfokaPcZp5hrpwzHeX7EGGS3XOQGklrJX/a4Mp/5wDpR/K2CTxyZLQtaEFoPkwceQ8hchGpzUc5GBb20P4pRbgzcQkqhTpNy0PyGYa0rOzV5Gzd8Ol4Gvbg+L6SoLUaygzvVarCNOFi3DKVJlUm4RC45vEutAUmwF7Gsmtcik8vppVPAUBzbbm6LWB5d78fMDQbQFdIQZKzDroEAxIJU5Sh1PXA055VZDyGmJOWKtJVmrEaOcDlVCh8oxeRWAE+TZRIpNKYniw0sFNuueZgsfX+/DrJN+dAetWIEEN/ltRbVrSv2uwO2Kp8UbhgF1aPbpAGl41gFV6ZbGsRVXZQ2oFLC55zkxgZ3SVhIrYsfBuDnd+HqDB1ubA/CFLQWOAjcpt51q1xTlpv8hWROuLCDx/kaJ2treeCPmeHoXqKARObaYvvZRbrImlGdfO6kFY6Z24IZSeG26rc3oxL0LOvHcHresqKDHrJgnBDd5bhpO2al2TYGbVnbNWkqWW35sjRVJacQ0dpGJ0sgrJzWQXTJZvHpCn3REKPgEy37EUvA0i623aDCnUxtJMWBfkknm9C7cNL0Dt8xsxefWdWDJ2QD8GiePfYEw8wG7InArJr3cfe6QodgRtaclI5d+ZuRTLuB092KPqLxHXsMPT3ajkna4bmonXjGJmspcgDfjZc83gvJu2p/QVJbWg7QMvGl6J26a0Ymx0zvF6Or6F1pw07RW3De/Db896MEpj4ZoFtjktUm17aauPC4Xm+r+ip0VlElioT0/mjEuppyM4MNrfbJSQiWV6jxTOx2I0hACmPLsXgmKbYLZq8QRZU8rxkxtk0S25tpJloz8tpmt+OL6Lmw470OXL4RQOIxQKCRLY1NDmYspBdZy9xXbc3PooIC9WIolTRz2JPDcoYhEMBqKeHhO56he56DKnQBXtiQ0axWQK1Fh1q6EWk0qf3LTa2a04kP1XZh2zI9z7rCI/0ixlQiQ4j87pmpOzq1YE+7JnkSMHrzYnQS9ZugNLgB3ZN/DWIJkAZzqdfpY0kOHprFiMEWJSs6kk7w5r10/tRWPLOvErw74cdwVQSASRTK79g3ZXAK5ELurKLcdX4WOK6bchV6ae41KHUZd2tyZxJe2kf/2Wssmj7qJWfUoaC2MRkpMSCpOzSSTAP3583gZTWVtsvBrX2jC/XXN+PFONw50aZarmY2/Vm5mww7cBDutBV2xDFa1JURzybh89JiuhUZyvuFyOl23yLdvyE4Yr3uhGddMaMTVE5tx9QttuGZKO145ox0PLm7Hj3e48FJbGP5oUqJy2UV9wxrc9Jaj021XLC0A//6esLhx3TLPM/Kca0fliESQdwk/Ljz5tE7cOLMbb1rgxkfW+/DrI2HsccVlzVE6aduBTeI3rMEtBcjG+GO8ETrhPndEwwfWB3D7fCsy64jzIB+FIKcdEZ23uVIdV1FjMKWpZ6M4EzJlzSCyqPm2YQ9uVSgWkBpMBomccS6Gr28P4t31lhOuY2R1OSzC0D7LtmP4aMZZpwPCTw5EZM0gWUWZa+YoAOTZjxhws2wK4GRT9rgT+MPxiKy8y7UX37rMK8s9i7msI1Wp6XmJAHqOW6LXMnDppzZZAZO4wtupoAmO0nQ9LLaNKHCzsCxyuqcHkWQK5wNx7HQlxdjqp4c0Gc4YY5vR/bnq1v1LvOJQynXVuZpY+cmDuxd6hKqU/2wZ+TGP3nyYXxnPlnWvKovaD1Q+XinPXdkyvXmRF/cu9uJtS30SOu3hep9EAPvWzrBEtK1vTeBowJSovLTr748NyQX7iAO3KqCoWJMGYmYGHi56H0phu8vA0uY4ppyJ4X+O6/j5IQ3P7tPwg90RfG9XBN+tIH1nZwjf3Rmu6NnS8wuD+XxnV0hWUCj9uXLLpPIZ6PJE8Pc7Qvi77QGpd0bb4soTvzyq4/cndTDO+dr2BLikeXOEy29zFbS+CK+qjYvtRzS4k0kaplt8GUcxLrPBkMDeeAbtehrnIylZaeGIz8ChCtMBTwIHvEkc9Fb+jmJ58929+VT4ncXy4PWD3qSVjydRcX2Ukg/v2eeOY3dXVPI56jdxOmhF6SIvTZdCRrql7yzbrTgDkh/mIxvc9LrIxo1j8VlJ/MsKU/H7OMwxPjcrs5IUNVKImumKni01v1gqA8nHGBn5sNxawkQwGpd6YxtQpMt4ipcLaDvMRxW47QWv1nEx9W418imlkaqVD7V5TAO9FVpktVp5l1JvNal+L1YBBB1tDOyUu9gzlVx3wF1JrTE6bgpctWwgNwfcl1m7Drgrq0AH3JXVmzzlUO7yK4+UzmFLCtfbFUePHkUliQbl1doccJdfk6MF3FxqpBJ88plBMXkt1nQOuIvV0KXXRwu47SV3JpT22sg5dnjunAop8a/Dc5dYUflucyh3vlopfM6h3IXrh1cdtqR4HZV1B0E3WCOEM6Es3DQOuAvXT9lXHXCXXWXyQCn15vDcBep2sCjqYOXjUO4CjV1TbEkyOaCqZDtl4PFAbSMtH9YTQy2MKg0lG7FaiTFQ7JGGqvVe+3tI5ZiPoqr2a9U8Hmn5sG4YS4QsQTXrKfdd9nrLvaYI0aCxJQRJtZJQhni8F3zVem/ue1TAl9zz1fzPDjRY+ajgNdX8/nzvUsHg812r1rn+6o2gV9uggTu3d13Of4dylz8K2ikdjy+n/os9qyj3QObDd6uOkvs9lYL7/wDIwWLJ0Wm4swAAAABJRU5ErkJggg==;" parent="1" vertex="1">
          <mxGeometry x="326.18" y="1280" width="107.64" height="100" as="geometry" />
        </mxCell>
        <mxCell id="ncc3csSP8lIbkbu97Iwq-123" value="支付宝" style="text;html=1;align=center;verticalAlign=middle;resizable=0;points=[];autosize=1;strokeColor=none;fillColor=none;fontSize=16;fontColor=#000000;" parent="1" vertex="1">
          <mxGeometry x="350.5" y="1380" width="60" height="20" as="geometry" />
        </mxCell>
        <mxCell id="ncc3csSP8lIbkbu97Iwq-124" value="百度支付" style="text;html=1;align=center;verticalAlign=middle;resizable=0;points=[];autosize=1;strokeColor=none;fillColor=none;fontSize=16;fontColor=#000000;" parent="1" vertex="1">
          <mxGeometry x="342" y="1670" width="80" height="20" as="geometry" />
        </mxCell>
        <mxCell id="ncc3csSP8lIbkbu97Iwq-126" value="" style="endArrow=classic;html=1;rounded=0;fontSize=16;fontColor=#000000;exitX=1;exitY=1;exitDx=0;exitDy=0;" parent="1" source="ncc3csSP8lIbkbu97Iwq-105" edge="1">
          <mxGeometry width="50" height="50" relative="1" as="geometry">
            <mxPoint x="160" y="1520" as="sourcePoint" />
            <mxPoint x="330" y="1610" as="targetPoint" />
          </mxGeometry>
        </mxCell>
        <mxCell id="ncc3csSP8lIbkbu97Iwq-128" value="" style="endArrow=classic;html=1;rounded=0;fontSize=16;fontColor=#000000;entryX=0;entryY=0.5;entryDx=0;entryDy=0;" parent="1" target="ncc3csSP8lIbkbu97Iwq-122" edge="1">
          <mxGeometry width="50" height="50" relative="1" as="geometry">
            <mxPoint x="150" y="1420" as="sourcePoint" />
            <mxPoint x="174" y="1390" as="targetPoint" />
          </mxGeometry>
        </mxCell>
        <mxCell id="ncc3csSP8lIbkbu97Iwq-129" value="" style="endArrow=classic;html=1;rounded=0;fontSize=16;fontColor=#000000;exitX=1;exitY=0.5;exitDx=0;exitDy=0;" parent="1" source="ncc3csSP8lIbkbu97Iwq-121" edge="1">
          <mxGeometry width="50" height="50" relative="1" as="geometry">
            <mxPoint x="161" y="1526.25" as="sourcePoint" />
            <mxPoint x="570" y="1490" as="targetPoint" />
          </mxGeometry>
        </mxCell>
        <mxCell id="ncc3csSP8lIbkbu97Iwq-130" value="" style="endArrow=classic;html=1;rounded=0;fontSize=16;fontColor=#000000;exitX=1;exitY=0.5;exitDx=0;exitDy=0;" parent="1" source="ncc3csSP8lIbkbu97Iwq-122" edge="1">
          <mxGeometry width="50" height="50" relative="1" as="geometry">
            <mxPoint x="160" y="1430" as="sourcePoint" />
            <mxPoint x="570" y="1430" as="targetPoint" />
          </mxGeometry>
        </mxCell>
      </root>
    </mxGraphModel>
  </diagram>
</mxfile>
